<mxfile host="app.diagrams.net" agent="Mozilla/5.0 (Windows NT 10.0; Win64; x64) AppleWebKit/537.36 (KHTML, like Gecko) Chrome/126.0.0.0 Safari/537.36 Edg/126.0.0.0" version="24.8.0">
  <diagram name="第 1 页" id="08ktoVXegdY-p2ygeXry">
    <mxGraphModel dx="1827" dy="1308" grid="0" gridSize="10" guides="1" tooltips="1" connect="1" arrows="1" fold="1" page="0" pageScale="1" pageWidth="827" pageHeight="1169" math="0" shadow="0">
      <root>
        <mxCell id="0" />
        <mxCell id="1" parent="0" />
        <mxCell id="h3pUcmXuetGUe7hEGyPd-1" value="1" style="text;html=1;align=center;verticalAlign=middle;resizable=0;points=[];autosize=1;strokeColor=none;fillColor=none;fontSize=16;" parent="1" vertex="1">
          <mxGeometry x="79" y="11" width="30" height="30" as="geometry" />
        </mxCell>
        <mxCell id="h3pUcmXuetGUe7hEGyPd-3" value="" style="endArrow=none;html=1;rounded=0;fontSize=12;startSize=8;endSize=8;curved=1;" parent="1" edge="1">
          <mxGeometry width="50" height="50" relative="1" as="geometry">
            <mxPoint x="60" y="70" as="sourcePoint" />
            <mxPoint x="90" y="40" as="targetPoint" />
          </mxGeometry>
        </mxCell>
        <mxCell id="h3pUcmXuetGUe7hEGyPd-4" value="2" style="text;html=1;align=center;verticalAlign=middle;resizable=0;points=[];autosize=1;strokeColor=none;fillColor=none;fontSize=16;" parent="1" vertex="1">
          <mxGeometry x="39" y="61" width="30" height="30" as="geometry" />
        </mxCell>
        <mxCell id="h3pUcmXuetGUe7hEGyPd-5" value="" style="endArrow=none;html=1;rounded=0;fontSize=12;startSize=8;endSize=8;curved=1;" parent="1" edge="1">
          <mxGeometry width="50" height="50" relative="1" as="geometry">
            <mxPoint x="20" y="111" as="sourcePoint" />
            <mxPoint x="50" y="81" as="targetPoint" />
          </mxGeometry>
        </mxCell>
        <mxCell id="h3pUcmXuetGUe7hEGyPd-6" value="3" style="text;html=1;align=center;verticalAlign=middle;resizable=0;points=[];autosize=1;strokeColor=none;fillColor=none;fontSize=16;" parent="1" vertex="1">
          <mxGeometry y="100" width="30" height="30" as="geometry" />
        </mxCell>
        <mxCell id="h3pUcmXuetGUe7hEGyPd-7" value="" style="endArrow=none;html=1;rounded=0;fontSize=12;startSize=8;endSize=8;curved=1;" parent="1" edge="1">
          <mxGeometry width="50" height="50" relative="1" as="geometry">
            <mxPoint x="-20" y="150" as="sourcePoint" />
            <mxPoint x="10" y="120" as="targetPoint" />
          </mxGeometry>
        </mxCell>
        <mxCell id="h3pUcmXuetGUe7hEGyPd-8" value="4" style="text;html=1;align=center;verticalAlign=middle;resizable=0;points=[];autosize=1;strokeColor=none;fillColor=none;fontSize=16;" parent="1" vertex="1">
          <mxGeometry x="-40" y="140" width="30" height="30" as="geometry" />
        </mxCell>
        <mxCell id="h3pUcmXuetGUe7hEGyPd-11" value="" style="endArrow=none;html=1;rounded=0;fontSize=12;startSize=8;endSize=8;curved=1;" parent="1" edge="1">
          <mxGeometry width="50" height="50" relative="1" as="geometry">
            <mxPoint x="50" y="150" as="sourcePoint" />
            <mxPoint x="20" y="120" as="targetPoint" />
          </mxGeometry>
        </mxCell>
        <mxCell id="h3pUcmXuetGUe7hEGyPd-12" value="5" style="text;html=1;align=center;verticalAlign=middle;resizable=0;points=[];autosize=1;strokeColor=none;fillColor=none;fontSize=16;" parent="1" vertex="1">
          <mxGeometry x="39" y="141" width="30" height="30" as="geometry" />
        </mxCell>
        <mxCell id="h3pUcmXuetGUe7hEGyPd-13" value="" style="endArrow=none;html=1;rounded=0;fontSize=12;startSize=8;endSize=8;curved=1;" parent="1" edge="1">
          <mxGeometry width="50" height="50" relative="1" as="geometry">
            <mxPoint x="91" y="106" as="sourcePoint" />
            <mxPoint x="61" y="76" as="targetPoint" />
          </mxGeometry>
        </mxCell>
        <mxCell id="h3pUcmXuetGUe7hEGyPd-14" value="6" style="text;html=1;align=center;verticalAlign=middle;resizable=0;points=[];autosize=1;strokeColor=none;fillColor=none;fontSize=16;" parent="1" vertex="1">
          <mxGeometry x="79" y="100" width="30" height="30" as="geometry" />
        </mxCell>
        <mxCell id="h3pUcmXuetGUe7hEGyPd-15" value="" style="endArrow=none;html=1;rounded=0;fontSize=12;startSize=8;endSize=8;curved=1;" parent="1" edge="1">
          <mxGeometry width="50" height="50" relative="1" as="geometry">
            <mxPoint x="130" y="72" as="sourcePoint" />
            <mxPoint x="100" y="42" as="targetPoint" />
          </mxGeometry>
        </mxCell>
        <mxCell id="h3pUcmXuetGUe7hEGyPd-16" value="7" style="text;html=1;align=center;verticalAlign=middle;resizable=0;points=[];autosize=1;strokeColor=none;fillColor=none;fontSize=16;" parent="1" vertex="1">
          <mxGeometry x="120" y="70" width="30" height="30" as="geometry" />
        </mxCell>
        <mxCell id="h3pUcmXuetGUe7hEGyPd-17" value="" style="shape=partialRectangle;whiteSpace=wrap;html=1;bottom=1;right=1;left=1;top=0;fillColor=none;routingCenterX=-0.5;" parent="1" vertex="1">
          <mxGeometry x="-80" y="200" width="57" height="149" as="geometry" />
        </mxCell>
        <mxCell id="h3pUcmXuetGUe7hEGyPd-18" value="1" style="text;html=1;align=center;verticalAlign=middle;resizable=0;points=[];autosize=1;strokeColor=none;fillColor=none;fontSize=16;" parent="1" vertex="1">
          <mxGeometry x="-66.5" y="319" width="30" height="30" as="geometry" />
        </mxCell>
        <mxCell id="h3pUcmXuetGUe7hEGyPd-19" value="2" style="text;html=1;align=center;verticalAlign=middle;resizable=0;points=[];autosize=1;strokeColor=none;fillColor=none;fontSize=16;" parent="1" vertex="1">
          <mxGeometry x="-66.5" y="289" width="30" height="30" as="geometry" />
        </mxCell>
        <mxCell id="h3pUcmXuetGUe7hEGyPd-20" value="3" style="text;html=1;align=center;verticalAlign=middle;resizable=0;points=[];autosize=1;strokeColor=none;fillColor=none;fontSize=16;" parent="1" vertex="1">
          <mxGeometry x="-66.5" y="259" width="30" height="30" as="geometry" />
        </mxCell>
        <mxCell id="h3pUcmXuetGUe7hEGyPd-21" value="4" style="text;html=1;align=center;verticalAlign=middle;resizable=0;points=[];autosize=1;strokeColor=none;fillColor=none;fontSize=16;" parent="1" vertex="1">
          <mxGeometry x="-66.5" y="220" width="30" height="30" as="geometry" />
        </mxCell>
        <mxCell id="h3pUcmXuetGUe7hEGyPd-22" value="先把左子树的所&lt;div&gt;有结点放入栈内&lt;/div&gt;" style="text;html=1;align=center;verticalAlign=middle;resizable=0;points=[];autosize=1;strokeColor=none;fillColor=none;fontSize=16;" parent="1" vertex="1">
          <mxGeometry x="-13" y="229" width="130" height="50" as="geometry" />
        </mxCell>
        <mxCell id="h3pUcmXuetGUe7hEGyPd-24" value="" style="endArrow=classic;html=1;rounded=0;fontSize=12;startSize=8;endSize=8;curved=1;" parent="1" edge="1">
          <mxGeometry width="50" height="50" relative="1" as="geometry">
            <mxPoint x="120" y="263" as="sourcePoint" />
            <mxPoint x="209" y="263" as="targetPoint" />
          </mxGeometry>
        </mxCell>
        <mxCell id="h3pUcmXuetGUe7hEGyPd-25" value="然后进行结点判断&lt;span style=&quot;background-color: initial;&quot;&gt;若结点为空&lt;/span&gt;&lt;div&gt;直接末尾元&lt;span style=&quot;background-color: initial;&quot;&gt;素弹出&lt;/span&gt;&lt;span style=&quot;background-color: initial;&quot;&gt;栈然后加入数组&lt;/span&gt;&lt;/div&gt;&lt;div&gt;&lt;span style=&quot;background-color: initial;&quot;&gt;并将此时的root赋值为弹出元素的右节点&lt;/span&gt;&lt;/div&gt;" style="text;html=1;align=center;verticalAlign=middle;resizable=0;points=[];autosize=1;strokeColor=none;fillColor=none;fontSize=16;" parent="1" vertex="1">
          <mxGeometry x="299" y="232" width="302" height="70" as="geometry" />
        </mxCell>
        <mxCell id="h3pUcmXuetGUe7hEGyPd-26" value="" style="shape=partialRectangle;whiteSpace=wrap;html=1;bottom=1;right=1;left=1;top=0;fillColor=none;routingCenterX=-0.5;" parent="1" vertex="1">
          <mxGeometry x="245" y="199.5" width="57" height="149" as="geometry" />
        </mxCell>
        <mxCell id="h3pUcmXuetGUe7hEGyPd-27" value="1" style="text;html=1;align=center;verticalAlign=middle;resizable=0;points=[];autosize=1;strokeColor=none;fillColor=none;fontSize=16;" parent="1" vertex="1">
          <mxGeometry x="256" y="310" width="30" height="30" as="geometry" />
        </mxCell>
        <mxCell id="h3pUcmXuetGUe7hEGyPd-28" value="2" style="text;html=1;align=center;verticalAlign=middle;resizable=0;points=[];autosize=1;strokeColor=none;fillColor=none;fontSize=16;" parent="1" vertex="1">
          <mxGeometry x="256" y="279" width="30" height="30" as="geometry" />
        </mxCell>
        <mxCell id="h3pUcmXuetGUe7hEGyPd-29" value="3" style="text;html=1;align=center;verticalAlign=middle;resizable=0;points=[];autosize=1;strokeColor=none;fillColor=none;fontSize=16;" parent="1" vertex="1">
          <mxGeometry x="256" y="247" width="30" height="30" as="geometry" />
        </mxCell>
        <mxCell id="h3pUcmXuetGUe7hEGyPd-30" value="4" style="text;html=1;align=center;verticalAlign=middle;resizable=0;points=[];autosize=1;strokeColor=none;fillColor=none;fontSize=16;" parent="1" vertex="1">
          <mxGeometry x="321" y="134.5" width="30" height="30" as="geometry" />
        </mxCell>
        <mxCell id="h3pUcmXuetGUe7hEGyPd-31" value="" style="shape=partialRectangle;whiteSpace=wrap;html=1;bottom=1;right=1;left=1;top=0;fillColor=none;routingCenterX=-0.5;direction=south;" parent="1" vertex="1">
          <mxGeometry x="305" y="121" width="149" height="57" as="geometry" />
        </mxCell>
        <mxCell id="h3pUcmXuetGUe7hEGyPd-32" value="res" style="text;html=1;align=center;verticalAlign=middle;resizable=0;points=[];autosize=1;strokeColor=none;fillColor=none;fontSize=16;" parent="1" vertex="1">
          <mxGeometry x="265" y="130" width="40" height="31" as="geometry" />
        </mxCell>
        <mxCell id="h3pUcmXuetGUe7hEGyPd-33" value="" style="endArrow=classic;html=1;rounded=0;fontSize=12;startSize=8;endSize=8;curved=1;" parent="1" edge="1">
          <mxGeometry width="50" height="50" relative="1" as="geometry">
            <mxPoint x="629" y="266.5" as="sourcePoint" />
            <mxPoint x="718" y="266.5" as="targetPoint" />
          </mxGeometry>
        </mxCell>
        <mxCell id="h3pUcmXuetGUe7hEGyPd-34" value="" style="shape=partialRectangle;whiteSpace=wrap;html=1;bottom=1;right=1;left=1;top=0;fillColor=none;routingCenterX=-0.5;" parent="1" vertex="1">
          <mxGeometry x="745" y="199.5" width="57" height="149" as="geometry" />
        </mxCell>
        <mxCell id="h3pUcmXuetGUe7hEGyPd-35" value="1" style="text;html=1;align=center;verticalAlign=middle;resizable=0;points=[];autosize=1;strokeColor=none;fillColor=none;fontSize=16;" parent="1" vertex="1">
          <mxGeometry x="756" y="310" width="30" height="30" as="geometry" />
        </mxCell>
        <mxCell id="h3pUcmXuetGUe7hEGyPd-36" value="2" style="text;html=1;align=center;verticalAlign=middle;resizable=0;points=[];autosize=1;strokeColor=none;fillColor=none;fontSize=16;" parent="1" vertex="1">
          <mxGeometry x="756" y="279" width="30" height="30" as="geometry" />
        </mxCell>
        <mxCell id="h3pUcmXuetGUe7hEGyPd-37" value="3" style="text;html=1;align=center;verticalAlign=middle;resizable=0;points=[];autosize=1;strokeColor=none;fillColor=none;fontSize=16;" parent="1" vertex="1">
          <mxGeometry x="781" y="136.5" width="30" height="30" as="geometry" />
        </mxCell>
        <mxCell id="h3pUcmXuetGUe7hEGyPd-38" value="4" style="text;html=1;align=center;verticalAlign=middle;resizable=0;points=[];autosize=1;strokeColor=none;fillColor=none;fontSize=16;" parent="1" vertex="1">
          <mxGeometry x="750" y="136.5" width="30" height="30" as="geometry" />
        </mxCell>
        <mxCell id="h3pUcmXuetGUe7hEGyPd-39" value="" style="shape=partialRectangle;whiteSpace=wrap;html=1;bottom=1;right=1;left=1;top=0;fillColor=none;routingCenterX=-0.5;direction=south;" parent="1" vertex="1">
          <mxGeometry x="734" y="123" width="149" height="57" as="geometry" />
        </mxCell>
        <mxCell id="h3pUcmXuetGUe7hEGyPd-40" value="res" style="text;html=1;align=center;verticalAlign=middle;resizable=0;points=[];autosize=1;strokeColor=none;fillColor=none;fontSize=16;" parent="1" vertex="1">
          <mxGeometry x="694" y="132" width="40" height="31" as="geometry" />
        </mxCell>
        <mxCell id="h3pUcmXuetGUe7hEGyPd-41" value="此时4的右节点为null&lt;div&gt;然后继续弹出元素放入数组进行判断&lt;/div&gt;" style="text;html=1;align=center;verticalAlign=middle;resizable=0;points=[];autosize=1;strokeColor=none;fillColor=none;fontSize=16;" parent="1" vertex="1">
          <mxGeometry x="811" y="247" width="274" height="50" as="geometry" />
        </mxCell>
        <mxCell id="h3pUcmXuetGUe7hEGyPd-42" value="3" style="text;html=1;align=center;verticalAlign=middle;resizable=0;points=[];autosize=1;strokeColor=none;fillColor=none;fontSize=16;" parent="1" vertex="1">
          <mxGeometry x="1254" y="140" width="30" height="30" as="geometry" />
        </mxCell>
        <mxCell id="h3pUcmXuetGUe7hEGyPd-43" value="4" style="text;html=1;align=center;verticalAlign=middle;resizable=0;points=[];autosize=1;strokeColor=none;fillColor=none;fontSize=16;" parent="1" vertex="1">
          <mxGeometry x="1223" y="140" width="30" height="30" as="geometry" />
        </mxCell>
        <mxCell id="h3pUcmXuetGUe7hEGyPd-44" value="" style="shape=partialRectangle;whiteSpace=wrap;html=1;bottom=1;right=1;left=1;top=0;fillColor=none;routingCenterX=-0.5;direction=south;" parent="1" vertex="1">
          <mxGeometry x="1207" y="126.5" width="149" height="57" as="geometry" />
        </mxCell>
        <mxCell id="h3pUcmXuetGUe7hEGyPd-45" value="res" style="text;html=1;align=center;verticalAlign=middle;resizable=0;points=[];autosize=1;strokeColor=none;fillColor=none;fontSize=16;" parent="1" vertex="1">
          <mxGeometry x="1167" y="135.5" width="40" height="31" as="geometry" />
        </mxCell>
        <mxCell id="h3pUcmXuetGUe7hEGyPd-46" value="" style="endArrow=classic;html=1;rounded=0;fontSize=12;startSize=8;endSize=8;curved=1;" parent="1" edge="1">
          <mxGeometry width="50" height="50" relative="1" as="geometry">
            <mxPoint x="1073" y="266.5" as="sourcePoint" />
            <mxPoint x="1162" y="266.5" as="targetPoint" />
          </mxGeometry>
        </mxCell>
        <mxCell id="h3pUcmXuetGUe7hEGyPd-47" value="" style="shape=partialRectangle;whiteSpace=wrap;html=1;bottom=1;right=1;left=1;top=0;fillColor=none;routingCenterX=-0.5;" parent="1" vertex="1">
          <mxGeometry x="1184" y="195" width="57" height="149" as="geometry" />
        </mxCell>
        <mxCell id="h3pUcmXuetGUe7hEGyPd-48" value="1" style="text;html=1;align=center;verticalAlign=middle;resizable=0;points=[];autosize=1;strokeColor=none;fillColor=none;fontSize=16;" parent="1" vertex="1">
          <mxGeometry x="1195" y="305.5" width="30" height="30" as="geometry" />
        </mxCell>
        <mxCell id="h3pUcmXuetGUe7hEGyPd-49" value="2" style="text;html=1;align=center;verticalAlign=middle;resizable=0;points=[];autosize=1;strokeColor=none;fillColor=none;fontSize=16;" parent="1" vertex="1">
          <mxGeometry x="1195" y="274.5" width="30" height="30" as="geometry" />
        </mxCell>
        <mxCell id="h3pUcmXuetGUe7hEGyPd-50" value="5" style="text;html=1;align=center;verticalAlign=middle;resizable=0;points=[];autosize=1;strokeColor=none;fillColor=none;fontSize=16;" parent="1" vertex="1">
          <mxGeometry x="1196.5" y="246.5" width="27" height="31" as="geometry" />
        </mxCell>
        <mxCell id="h3pUcmXuetGUe7hEGyPd-51" value="此时3的右节点有值将此时的5放进栈" style="text;html=1;align=center;verticalAlign=middle;resizable=0;points=[];autosize=1;strokeColor=none;fillColor=none;fontSize=16;" parent="1" vertex="1">
          <mxGeometry x="1262" y="254" width="276" height="31" as="geometry" />
        </mxCell>
        <mxCell id="h3pUcmXuetGUe7hEGyPd-53" value="" style="endArrow=classic;html=1;rounded=0;fontSize=12;startSize=8;endSize=8;curved=1;" parent="1" edge="1">
          <mxGeometry width="50" height="50" relative="1" as="geometry">
            <mxPoint x="1156" y="410" as="sourcePoint" />
            <mxPoint x="1154" y="498" as="targetPoint" />
          </mxGeometry>
        </mxCell>
        <mxCell id="h3pUcmXuetGUe7hEGyPd-54" value="3" style="text;html=1;align=center;verticalAlign=middle;resizable=0;points=[];autosize=1;strokeColor=none;fillColor=none;fontSize=16;" parent="1" vertex="1">
          <mxGeometry x="1254" y="427.5" width="30" height="30" as="geometry" />
        </mxCell>
        <mxCell id="h3pUcmXuetGUe7hEGyPd-55" value="4" style="text;html=1;align=center;verticalAlign=middle;resizable=0;points=[];autosize=1;strokeColor=none;fillColor=none;fontSize=16;" parent="1" vertex="1">
          <mxGeometry x="1223" y="427.5" width="30" height="30" as="geometry" />
        </mxCell>
        <mxCell id="h3pUcmXuetGUe7hEGyPd-56" value="" style="shape=partialRectangle;whiteSpace=wrap;html=1;bottom=1;right=1;left=1;top=0;fillColor=none;routingCenterX=-0.5;direction=south;" parent="1" vertex="1">
          <mxGeometry x="1207" y="414" width="149" height="57" as="geometry" />
        </mxCell>
        <mxCell id="h3pUcmXuetGUe7hEGyPd-57" value="res" style="text;html=1;align=center;verticalAlign=middle;resizable=0;points=[];autosize=1;strokeColor=none;fillColor=none;fontSize=16;" parent="1" vertex="1">
          <mxGeometry x="1167" y="423" width="40" height="31" as="geometry" />
        </mxCell>
        <mxCell id="h3pUcmXuetGUe7hEGyPd-58" value="" style="shape=partialRectangle;whiteSpace=wrap;html=1;bottom=1;right=1;left=1;top=0;fillColor=none;routingCenterX=-0.5;" parent="1" vertex="1">
          <mxGeometry x="1184" y="482.5" width="57" height="149" as="geometry" />
        </mxCell>
        <mxCell id="h3pUcmXuetGUe7hEGyPd-59" value="1" style="text;html=1;align=center;verticalAlign=middle;resizable=0;points=[];autosize=1;strokeColor=none;fillColor=none;fontSize=16;" parent="1" vertex="1">
          <mxGeometry x="1195" y="593" width="30" height="30" as="geometry" />
        </mxCell>
        <mxCell id="h3pUcmXuetGUe7hEGyPd-60" value="2" style="text;html=1;align=center;verticalAlign=middle;resizable=0;points=[];autosize=1;strokeColor=none;fillColor=none;fontSize=16;" parent="1" vertex="1">
          <mxGeometry x="1195" y="562" width="30" height="30" as="geometry" />
        </mxCell>
        <mxCell id="h3pUcmXuetGUe7hEGyPd-61" value="5" style="text;html=1;align=center;verticalAlign=middle;resizable=0;points=[];autosize=1;strokeColor=none;fillColor=none;fontSize=16;" parent="1" vertex="1">
          <mxGeometry x="1196.5" y="534" width="27" height="31" as="geometry" />
        </mxCell>
        <mxCell id="h3pUcmXuetGUe7hEGyPd-62" value="此时3的右节点有值将此时的5放进栈" style="text;html=1;align=center;verticalAlign=middle;resizable=0;points=[];autosize=1;strokeColor=none;fillColor=none;fontSize=16;" parent="1" vertex="1">
          <mxGeometry x="1262" y="541.5" width="276" height="31" as="geometry" />
        </mxCell>
        <mxCell id="h3pUcmXuetGUe7hEGyPd-100" value="1" style="text;html=1;align=center;verticalAlign=middle;resizable=0;points=[];autosize=1;strokeColor=none;fillColor=none;fontSize=16;" parent="1" vertex="1">
          <mxGeometry x="13" y="506" width="30" height="30" as="geometry" />
        </mxCell>
        <mxCell id="h3pUcmXuetGUe7hEGyPd-101" value="" style="endArrow=none;html=1;rounded=0;fontSize=12;startSize=8;endSize=8;curved=1;" parent="1" edge="1">
          <mxGeometry width="50" height="50" relative="1" as="geometry">
            <mxPoint x="-6" y="565" as="sourcePoint" />
            <mxPoint x="24" y="535" as="targetPoint" />
          </mxGeometry>
        </mxCell>
        <mxCell id="h3pUcmXuetGUe7hEGyPd-102" value="2" style="text;html=1;align=center;verticalAlign=middle;resizable=0;points=[];autosize=1;strokeColor=none;fillColor=none;fontSize=16;" parent="1" vertex="1">
          <mxGeometry x="-27" y="556" width="30" height="30" as="geometry" />
        </mxCell>
        <mxCell id="h3pUcmXuetGUe7hEGyPd-103" value="" style="endArrow=none;html=1;rounded=0;fontSize=12;startSize=8;endSize=8;curved=1;" parent="1" edge="1">
          <mxGeometry width="50" height="50" relative="1" as="geometry">
            <mxPoint x="-46" y="606" as="sourcePoint" />
            <mxPoint x="-16" y="576" as="targetPoint" />
          </mxGeometry>
        </mxCell>
        <mxCell id="h3pUcmXuetGUe7hEGyPd-104" value="3" style="text;html=1;align=center;verticalAlign=middle;resizable=0;points=[];autosize=1;strokeColor=none;fillColor=none;fontSize=16;" parent="1" vertex="1">
          <mxGeometry x="-66" y="595" width="30" height="30" as="geometry" />
        </mxCell>
        <mxCell id="h3pUcmXuetGUe7hEGyPd-107" value="" style="endArrow=none;html=1;rounded=0;fontSize=12;startSize=8;endSize=8;curved=1;" parent="1" edge="1">
          <mxGeometry width="50" height="50" relative="1" as="geometry">
            <mxPoint x="62" y="651" as="sourcePoint" />
            <mxPoint x="32" y="621" as="targetPoint" />
          </mxGeometry>
        </mxCell>
        <mxCell id="h3pUcmXuetGUe7hEGyPd-108" value="5" style="text;html=1;align=center;verticalAlign=middle;resizable=0;points=[];autosize=1;strokeColor=none;fillColor=none;fontSize=16;" parent="1" vertex="1">
          <mxGeometry x="54" y="646" width="30" height="30" as="geometry" />
        </mxCell>
        <mxCell id="h3pUcmXuetGUe7hEGyPd-109" value="" style="endArrow=none;html=1;rounded=0;fontSize=12;startSize=8;endSize=8;curved=1;" parent="1" edge="1">
          <mxGeometry width="50" height="50" relative="1" as="geometry">
            <mxPoint x="25" y="601" as="sourcePoint" />
            <mxPoint x="-5" y="571" as="targetPoint" />
          </mxGeometry>
        </mxCell>
        <mxCell id="h3pUcmXuetGUe7hEGyPd-110" value="6" style="text;html=1;align=center;verticalAlign=middle;resizable=0;points=[];autosize=1;strokeColor=none;fillColor=none;fontSize=16;" parent="1" vertex="1">
          <mxGeometry x="13" y="595" width="30" height="30" as="geometry" />
        </mxCell>
        <mxCell id="h3pUcmXuetGUe7hEGyPd-111" value="" style="endArrow=none;html=1;rounded=0;fontSize=12;startSize=8;endSize=8;curved=1;" parent="1" edge="1">
          <mxGeometry width="50" height="50" relative="1" as="geometry">
            <mxPoint x="64" y="567" as="sourcePoint" />
            <mxPoint x="34" y="537" as="targetPoint" />
          </mxGeometry>
        </mxCell>
        <mxCell id="h3pUcmXuetGUe7hEGyPd-112" value="7" style="text;html=1;align=center;verticalAlign=middle;resizable=0;points=[];autosize=1;strokeColor=none;fillColor=none;fontSize=16;" parent="1" vertex="1">
          <mxGeometry x="54" y="565" width="30" height="30" as="geometry" />
        </mxCell>
        <mxCell id="h3pUcmXuetGUe7hEGyPd-115" value="" style="shape=partialRectangle;whiteSpace=wrap;html=1;bottom=0;top=0;fillColor=none;direction=south;" parent="1" vertex="1">
          <mxGeometry x="-102" y="737" width="242" height="49" as="geometry" />
        </mxCell>
        <mxCell id="h3pUcmXuetGUe7hEGyPd-116" value="queue" style="text;html=1;align=center;verticalAlign=middle;resizable=0;points=[];autosize=1;strokeColor=none;fillColor=none;fontSize=16;" parent="1" vertex="1">
          <mxGeometry x="-109" y="706" width="63" height="31" as="geometry" />
        </mxCell>
        <mxCell id="h3pUcmXuetGUe7hEGyPd-117" value="1" style="text;html=1;align=center;verticalAlign=middle;resizable=0;points=[];autosize=1;strokeColor=none;fillColor=none;fontSize=16;" parent="1" vertex="1">
          <mxGeometry x="-99" y="746" width="27" height="31" as="geometry" />
        </mxCell>
        <mxCell id="h3pUcmXuetGUe7hEGyPd-118" value="第一层只有一个所以只有1，&lt;div&gt;然后将1的左右子节点放入队列&lt;/div&gt;&lt;div&gt;1弹出depth+1&lt;/div&gt;" style="text;html=1;align=center;verticalAlign=middle;resizable=0;points=[];autosize=1;strokeColor=none;fillColor=none;fontSize=16;" parent="1" vertex="1">
          <mxGeometry x="-102.5" y="781" width="235" height="70" as="geometry" />
        </mxCell>
        <mxCell id="h3pUcmXuetGUe7hEGyPd-119" value="" style="shape=partialRectangle;whiteSpace=wrap;html=1;bottom=0;top=0;fillColor=none;direction=south;" parent="1" vertex="1">
          <mxGeometry x="226" y="737" width="242" height="49" as="geometry" />
        </mxCell>
        <mxCell id="h3pUcmXuetGUe7hEGyPd-120" value="2" style="text;html=1;align=center;verticalAlign=middle;resizable=0;points=[];autosize=1;strokeColor=none;fillColor=none;fontSize=16;" parent="1" vertex="1">
          <mxGeometry x="226" y="746" width="27" height="31" as="geometry" />
        </mxCell>
        <mxCell id="h3pUcmXuetGUe7hEGyPd-121" value="" style="endArrow=classic;html=1;rounded=0;fontSize=12;startSize=8;endSize=8;curved=1;" parent="1" edge="1">
          <mxGeometry width="50" height="50" relative="1" as="geometry">
            <mxPoint x="144" y="767" as="sourcePoint" />
            <mxPoint x="215" y="765" as="targetPoint" />
          </mxGeometry>
        </mxCell>
        <mxCell id="h3pUcmXuetGUe7hEGyPd-122" value="queue" style="text;html=1;align=center;verticalAlign=middle;resizable=0;points=[];autosize=1;strokeColor=none;fillColor=none;fontSize=16;" parent="1" vertex="1">
          <mxGeometry x="228" y="703" width="63" height="31" as="geometry" />
        </mxCell>
        <mxCell id="h3pUcmXuetGUe7hEGyPd-123" value="7" style="text;html=1;align=center;verticalAlign=middle;resizable=0;points=[];autosize=1;strokeColor=none;fillColor=none;fontSize=16;" parent="1" vertex="1">
          <mxGeometry x="256" y="746" width="27" height="31" as="geometry" />
        </mxCell>
        <mxCell id="h3pUcmXuetGUe7hEGyPd-124" value="此时的层结点为2所以循环两遍&lt;div&gt;弹出元素后放入左右子节点&lt;/div&gt;&lt;div&gt;depth++&lt;/div&gt;" style="text;html=1;align=center;verticalAlign=middle;resizable=0;points=[];autosize=1;strokeColor=none;fillColor=none;fontSize=16;" parent="1" vertex="1">
          <mxGeometry x="235" y="781.5" width="235" height="70" as="geometry" />
        </mxCell>
        <mxCell id="h3pUcmXuetGUe7hEGyPd-125" value="" style="shape=partialRectangle;whiteSpace=wrap;html=1;bottom=0;top=0;fillColor=none;direction=south;" parent="1" vertex="1">
          <mxGeometry x="544" y="737" width="242" height="49" as="geometry" />
        </mxCell>
        <mxCell id="h3pUcmXuetGUe7hEGyPd-127" value="queue" style="text;html=1;align=center;verticalAlign=middle;resizable=0;points=[];autosize=1;strokeColor=none;fillColor=none;fontSize=16;" parent="1" vertex="1">
          <mxGeometry x="546" y="703" width="63" height="31" as="geometry" />
        </mxCell>
        <mxCell id="h3pUcmXuetGUe7hEGyPd-129" value="" style="endArrow=classic;html=1;rounded=0;fontSize=12;startSize=8;endSize=8;curved=1;" parent="1" edge="1">
          <mxGeometry width="50" height="50" relative="1" as="geometry">
            <mxPoint x="464" y="760" as="sourcePoint" />
            <mxPoint x="535" y="760" as="targetPoint" />
          </mxGeometry>
        </mxCell>
        <mxCell id="h3pUcmXuetGUe7hEGyPd-130" value="3" style="text;html=1;align=center;verticalAlign=middle;resizable=0;points=[];autosize=1;strokeColor=none;fillColor=none;fontSize=16;" parent="1" vertex="1">
          <mxGeometry x="557" y="746" width="27" height="31" as="geometry" />
        </mxCell>
        <mxCell id="h3pUcmXuetGUe7hEGyPd-131" value="6" style="text;html=1;align=center;verticalAlign=middle;resizable=0;points=[];autosize=1;strokeColor=none;fillColor=none;fontSize=16;" parent="1" vertex="1">
          <mxGeometry x="591" y="746" width="27" height="31" as="geometry" />
        </mxCell>
        <mxCell id="h3pUcmXuetGUe7hEGyPd-134" value="poll:1" style="text;html=1;align=center;verticalAlign=middle;resizable=0;points=[];autosize=1;strokeColor=none;fillColor=none;fontSize=16;" parent="1" vertex="1">
          <mxGeometry x="-19.5" y="688.5" width="56" height="31" as="geometry" />
        </mxCell>
        <mxCell id="h3pUcmXuetGUe7hEGyPd-135" value="poll:2 7" style="text;html=1;align=center;verticalAlign=middle;resizable=0;points=[];autosize=1;strokeColor=none;fillColor=none;fontSize=16;" parent="1" vertex="1">
          <mxGeometry x="335.5" y="690.5" width="70" height="31" as="geometry" />
        </mxCell>
        <mxCell id="h3pUcmXuetGUe7hEGyPd-136" value="poll: 3 6" style="text;html=1;align=center;verticalAlign=middle;resizable=0;points=[];autosize=1;strokeColor=none;fillColor=none;fontSize=16;" parent="1" vertex="1">
          <mxGeometry x="651" y="701" width="74" height="31" as="geometry" />
        </mxCell>
        <mxCell id="h3pUcmXuetGUe7hEGyPd-137" value="按照前面类推&lt;div&gt;depth++&lt;/div&gt;" style="text;html=1;align=center;verticalAlign=middle;resizable=0;points=[];autosize=1;strokeColor=none;fillColor=none;fontSize=16;" parent="1" vertex="1">
          <mxGeometry x="611" y="782.5" width="114" height="50" as="geometry" />
        </mxCell>
        <mxCell id="h3pUcmXuetGUe7hEGyPd-138" value="" style="shape=partialRectangle;whiteSpace=wrap;html=1;bottom=0;top=0;fillColor=none;direction=south;" parent="1" vertex="1">
          <mxGeometry x="873" y="740" width="242" height="49" as="geometry" />
        </mxCell>
        <mxCell id="h3pUcmXuetGUe7hEGyPd-139" value="queue" style="text;html=1;align=center;verticalAlign=middle;resizable=0;points=[];autosize=1;strokeColor=none;fillColor=none;fontSize=16;" parent="1" vertex="1">
          <mxGeometry x="875" y="706" width="63" height="31" as="geometry" />
        </mxCell>
        <mxCell id="h3pUcmXuetGUe7hEGyPd-140" value="" style="endArrow=classic;html=1;rounded=0;fontSize=12;startSize=8;endSize=8;curved=1;" parent="1" edge="1">
          <mxGeometry width="50" height="50" relative="1" as="geometry">
            <mxPoint x="793" y="763" as="sourcePoint" />
            <mxPoint x="864" y="763" as="targetPoint" />
          </mxGeometry>
        </mxCell>
        <mxCell id="h3pUcmXuetGUe7hEGyPd-141" value="5" style="text;html=1;align=center;verticalAlign=middle;resizable=0;points=[];autosize=1;strokeColor=none;fillColor=none;fontSize=16;" parent="1" vertex="1">
          <mxGeometry x="886" y="749" width="27" height="31" as="geometry" />
        </mxCell>
        <mxCell id="h3pUcmXuetGUe7hEGyPd-143" value="最后得到叶子节点5&lt;div&gt;depth++&lt;/div&gt;" style="text;html=1;align=center;verticalAlign=middle;resizable=0;points=[];autosize=1;strokeColor=none;fillColor=none;fontSize=16;" parent="1" vertex="1">
          <mxGeometry x="920" y="785.5" width="155" height="50" as="geometry" />
        </mxCell>
        <mxCell id="uOGjcTrOW1bZUztO3bxn-37" value="" style="endArrow=none;html=1;rounded=0;fontSize=12;startSize=8;endSize=8;curved=1;" parent="1" edge="1">
          <mxGeometry width="50" height="50" relative="1" as="geometry">
            <mxPoint x="19" y="986" as="sourcePoint" />
            <mxPoint x="64" y="961" as="targetPoint" />
          </mxGeometry>
        </mxCell>
        <mxCell id="uOGjcTrOW1bZUztO3bxn-38" value="2" style="text;html=1;align=center;verticalAlign=middle;resizable=0;points=[];autosize=1;strokeColor=none;fillColor=none;fontSize=16;" parent="1" vertex="1">
          <mxGeometry x="-10" y="982" width="30" height="30" as="geometry" />
        </mxCell>
        <mxCell id="uOGjcTrOW1bZUztO3bxn-44" value="" style="endArrow=none;html=1;rounded=0;fontSize=12;startSize=8;endSize=8;curved=1;" parent="1" edge="1">
          <mxGeometry width="50" height="50" relative="1" as="geometry">
            <mxPoint x="120" y="984" as="sourcePoint" />
            <mxPoint x="73" y="961" as="targetPoint" />
          </mxGeometry>
        </mxCell>
        <mxCell id="uOGjcTrOW1bZUztO3bxn-45" value="7" style="text;html=1;align=center;verticalAlign=middle;resizable=0;points=[];autosize=1;strokeColor=none;fillColor=none;fontSize=16;" parent="1" vertex="1">
          <mxGeometry x="109" y="982" width="30" height="30" as="geometry" />
        </mxCell>
        <mxCell id="uOGjcTrOW1bZUztO3bxn-46" value="1" style="text;html=1;align=center;verticalAlign=middle;resizable=0;points=[];autosize=1;strokeColor=none;fillColor=none;fontSize=16;" parent="1" vertex="1">
          <mxGeometry x="54" y="938" width="27" height="31" as="geometry" />
        </mxCell>
        <mxCell id="uOGjcTrOW1bZUztO3bxn-53" value="" style="endArrow=none;html=1;rounded=0;fontSize=12;startSize=8;endSize=8;curved=1;" parent="1" edge="1">
          <mxGeometry width="50" height="50" relative="1" as="geometry">
            <mxPoint x="-47.5" y="1027" as="sourcePoint" />
            <mxPoint x="-2.5" y="1002" as="targetPoint" />
          </mxGeometry>
        </mxCell>
        <mxCell id="uOGjcTrOW1bZUztO3bxn-54" value="" style="endArrow=none;html=1;rounded=0;fontSize=12;startSize=8;endSize=8;curved=1;" parent="1" edge="1">
          <mxGeometry width="50" height="50" relative="1" as="geometry">
            <mxPoint x="54" y="1028" as="sourcePoint" />
            <mxPoint x="7" y="1005" as="targetPoint" />
          </mxGeometry>
        </mxCell>
        <mxCell id="uOGjcTrOW1bZUztO3bxn-55" value="" style="endArrow=none;html=1;rounded=0;fontSize=12;startSize=8;endSize=8;curved=1;" parent="1" edge="1">
          <mxGeometry width="50" height="50" relative="1" as="geometry">
            <mxPoint x="75" y="1030" as="sourcePoint" />
            <mxPoint x="120" y="1005" as="targetPoint" />
          </mxGeometry>
        </mxCell>
        <mxCell id="uOGjcTrOW1bZUztO3bxn-56" value="" style="endArrow=none;html=1;rounded=0;fontSize=12;startSize=8;endSize=8;curved=1;" parent="1" edge="1">
          <mxGeometry width="50" height="50" relative="1" as="geometry">
            <mxPoint x="174" y="1029" as="sourcePoint" />
            <mxPoint x="127" y="1006" as="targetPoint" />
          </mxGeometry>
        </mxCell>
        <mxCell id="uOGjcTrOW1bZUztO3bxn-57" value="3" style="text;html=1;align=center;verticalAlign=middle;resizable=0;points=[];autosize=1;strokeColor=none;fillColor=none;fontSize=16;" parent="1" vertex="1">
          <mxGeometry x="-71.5" y="1015.5" width="27" height="31" as="geometry" />
        </mxCell>
        <mxCell id="uOGjcTrOW1bZUztO3bxn-58" value="4" style="text;html=1;align=center;verticalAlign=middle;resizable=0;points=[];autosize=1;strokeColor=none;fillColor=none;fontSize=16;" parent="1" vertex="1">
          <mxGeometry x="37.5" y="1025.5" width="27" height="31" as="geometry" />
        </mxCell>
        <mxCell id="uOGjcTrOW1bZUztO3bxn-59" value="5" style="text;html=1;align=center;verticalAlign=middle;resizable=0;points=[];autosize=1;strokeColor=none;fillColor=none;fontSize=16;" parent="1" vertex="1">
          <mxGeometry x="61.5" y="1025.5" width="27" height="31" as="geometry" />
        </mxCell>
        <mxCell id="uOGjcTrOW1bZUztO3bxn-60" value="6" style="text;html=1;align=center;verticalAlign=middle;resizable=0;points=[];autosize=1;strokeColor=none;fillColor=none;fontSize=16;" parent="1" vertex="1">
          <mxGeometry x="174" y="1015.5" width="27" height="31" as="geometry" />
        </mxCell>
        <mxCell id="uOGjcTrOW1bZUztO3bxn-62" value="" style="shape=partialRectangle;whiteSpace=wrap;html=1;bottom=0;top=0;fillColor=none;direction=south;" parent="1" vertex="1">
          <mxGeometry x="-64" y="1109" width="223" height="48" as="geometry" />
        </mxCell>
        <mxCell id="uOGjcTrOW1bZUztO3bxn-63" value="1" style="text;html=1;align=center;verticalAlign=middle;resizable=0;points=[];autosize=1;strokeColor=none;fillColor=none;fontSize=16;" parent="1" vertex="1">
          <mxGeometry x="-63.5" y="1117.5" width="27" height="31" as="geometry" />
        </mxCell>
        <mxCell id="uOGjcTrOW1bZUztO3bxn-64" value="先将root放进队列&lt;div&gt;然后交换左右结点&lt;/div&gt;" style="text;html=1;align=center;verticalAlign=middle;resizable=0;points=[];autosize=1;strokeColor=none;fillColor=none;fontSize=16;" parent="1" vertex="1">
          <mxGeometry x="-46" y="1155" width="146" height="50" as="geometry" />
        </mxCell>
        <mxCell id="uOGjcTrOW1bZUztO3bxn-65" value="" style="edgeStyle=none;orthogonalLoop=1;jettySize=auto;html=1;rounded=0;fontSize=12;startSize=8;endSize=8;curved=1;" parent="1" edge="1">
          <mxGeometry width="140" relative="1" as="geometry">
            <mxPoint x="169.5" y="1132.41" as="sourcePoint" />
            <mxPoint x="241" y="1132" as="targetPoint" />
            <Array as="points" />
          </mxGeometry>
        </mxCell>
        <mxCell id="uOGjcTrOW1bZUztO3bxn-66" value="" style="shape=partialRectangle;whiteSpace=wrap;html=1;bottom=0;top=0;fillColor=none;direction=south;" parent="1" vertex="1">
          <mxGeometry x="268" y="1107" width="223" height="48" as="geometry" />
        </mxCell>
        <mxCell id="uOGjcTrOW1bZUztO3bxn-67" value="2" style="text;html=1;align=center;verticalAlign=middle;resizable=0;points=[];autosize=1;strokeColor=none;fillColor=none;fontSize=16;" parent="1" vertex="1">
          <mxGeometry x="272" y="1117.5" width="27" height="31" as="geometry" />
        </mxCell>
        <mxCell id="uOGjcTrOW1bZUztO3bxn-68" value="7" style="text;html=1;align=center;verticalAlign=middle;resizable=0;points=[];autosize=1;strokeColor=none;fillColor=none;fontSize=16;" parent="1" vertex="1">
          <mxGeometry x="308.5" y="1117.5" width="27" height="31" as="geometry" />
        </mxCell>
        <mxCell id="uOGjcTrOW1bZUztO3bxn-70" value="接着判断1的左右节点&lt;div&gt;是否为空，不为空加入队列&lt;/div&gt;" style="text;html=1;align=center;verticalAlign=middle;resizable=0;points=[];autosize=1;strokeColor=none;fillColor=none;fontSize=16;" parent="1" vertex="1">
          <mxGeometry x="265.5" y="1157" width="210" height="50" as="geometry" />
        </mxCell>
        <mxCell id="uOGjcTrOW1bZUztO3bxn-71" value="" style="shape=partialRectangle;whiteSpace=wrap;html=1;bottom=0;top=0;fillColor=none;direction=south;" parent="1" vertex="1">
          <mxGeometry x="586.5" y="1103.25" width="223" height="48" as="geometry" />
        </mxCell>
        <mxCell id="uOGjcTrOW1bZUztO3bxn-72" value="2" style="text;html=1;align=center;verticalAlign=middle;resizable=0;points=[];autosize=1;strokeColor=none;fillColor=none;fontSize=16;" parent="1" vertex="1">
          <mxGeometry x="375" y="1015.5" width="27" height="31" as="geometry" />
        </mxCell>
        <mxCell id="uOGjcTrOW1bZUztO3bxn-73" value="7" style="text;html=1;align=center;verticalAlign=middle;resizable=0;points=[];autosize=1;strokeColor=none;fillColor=none;fontSize=16;" parent="1" vertex="1">
          <mxGeometry x="331" y="1015.5" width="27" height="31" as="geometry" />
        </mxCell>
        <mxCell id="uOGjcTrOW1bZUztO3bxn-75" value="接着弹出2和3交换2和3&lt;div&gt;的左右子节点然后同上判断&lt;/div&gt;" style="text;html=1;align=center;verticalAlign=middle;resizable=0;points=[];autosize=1;strokeColor=none;fillColor=none;fontSize=16;" parent="1" vertex="1">
          <mxGeometry x="586.5" y="1160" width="210" height="50" as="geometry" />
        </mxCell>
        <mxCell id="uOGjcTrOW1bZUztO3bxn-76" value="" style="edgeStyle=none;orthogonalLoop=1;jettySize=auto;html=1;rounded=0;fontSize=12;startSize=8;endSize=8;curved=1;exitX=0.5;exitY=0;exitDx=0;exitDy=0;" parent="1" source="uOGjcTrOW1bZUztO3bxn-66" edge="1">
          <mxGeometry width="140" relative="1" as="geometry">
            <mxPoint x="438" y="1131" as="sourcePoint" />
            <mxPoint x="578" y="1131" as="targetPoint" />
            <Array as="points" />
          </mxGeometry>
        </mxCell>
        <mxCell id="uOGjcTrOW1bZUztO3bxn-79" value="3" style="text;html=1;align=center;verticalAlign=middle;resizable=0;points=[];autosize=1;strokeColor=none;fillColor=none;fontSize=16;" parent="1" vertex="1">
          <mxGeometry x="595" y="1117.5" width="27" height="31" as="geometry" />
        </mxCell>
        <mxCell id="uOGjcTrOW1bZUztO3bxn-80" value="4" style="text;html=1;align=center;verticalAlign=middle;resizable=0;points=[];autosize=1;strokeColor=none;fillColor=none;fontSize=16;" parent="1" vertex="1">
          <mxGeometry x="635" y="1117.5" width="27" height="31" as="geometry" />
        </mxCell>
        <mxCell id="uOGjcTrOW1bZUztO3bxn-81" value="5" style="text;html=1;align=center;verticalAlign=middle;resizable=0;points=[];autosize=1;strokeColor=none;fillColor=none;fontSize=16;" parent="1" vertex="1">
          <mxGeometry x="674.5" y="1120.25" width="27" height="31" as="geometry" />
        </mxCell>
        <mxCell id="uOGjcTrOW1bZUztO3bxn-82" value="6" style="text;html=1;align=center;verticalAlign=middle;resizable=0;points=[];autosize=1;strokeColor=none;fillColor=none;fontSize=16;" parent="1" vertex="1">
          <mxGeometry x="714" y="1120.25" width="27" height="31" as="geometry" />
        </mxCell>
        <mxCell id="uOGjcTrOW1bZUztO3bxn-83" value="1" style="text;html=1;align=center;verticalAlign=middle;resizable=0;points=[];autosize=1;strokeColor=none;fillColor=none;fontSize=16;" parent="1" vertex="1">
          <mxGeometry x="651.5" y="951" width="27" height="31" as="geometry" />
        </mxCell>
        <mxCell id="uOGjcTrOW1bZUztO3bxn-84" value="1" style="text;html=1;align=center;verticalAlign=middle;resizable=0;points=[];autosize=1;strokeColor=none;fillColor=none;fontSize=16;" parent="1" vertex="1">
          <mxGeometry x="351" y="988" width="27" height="31" as="geometry" />
        </mxCell>
        <mxCell id="uOGjcTrOW1bZUztO3bxn-85" value="7" style="text;html=1;align=center;verticalAlign=middle;resizable=0;points=[];autosize=1;strokeColor=none;fillColor=none;fontSize=16;" parent="1" vertex="1">
          <mxGeometry x="619.5" y="991.5" width="27" height="31" as="geometry" />
        </mxCell>
        <mxCell id="uOGjcTrOW1bZUztO3bxn-86" value="2" style="text;html=1;align=center;verticalAlign=middle;resizable=0;points=[];autosize=1;strokeColor=none;fillColor=none;fontSize=16;" parent="1" vertex="1">
          <mxGeometry x="687" y="994.5" width="27" height="31" as="geometry" />
        </mxCell>
        <mxCell id="uOGjcTrOW1bZUztO3bxn-87" value="3" style="text;html=1;align=center;verticalAlign=middle;resizable=0;points=[];autosize=1;strokeColor=none;fillColor=none;fontSize=16;" parent="1" vertex="1">
          <mxGeometry x="723" y="1025.5" width="27" height="31" as="geometry" />
        </mxCell>
        <mxCell id="uOGjcTrOW1bZUztO3bxn-88" value="4" style="text;html=1;align=center;verticalAlign=middle;resizable=0;points=[];autosize=1;strokeColor=none;fillColor=none;fontSize=16;" parent="1" vertex="1">
          <mxGeometry x="672" y="1025.5" width="27" height="31" as="geometry" />
        </mxCell>
        <mxCell id="uOGjcTrOW1bZUztO3bxn-89" value="5" style="text;html=1;align=center;verticalAlign=middle;resizable=0;points=[];autosize=1;strokeColor=none;fillColor=none;fontSize=16;" parent="1" vertex="1">
          <mxGeometry x="635" y="1025.5" width="27" height="31" as="geometry" />
        </mxCell>
        <mxCell id="uOGjcTrOW1bZUztO3bxn-90" value="6" style="text;html=1;align=center;verticalAlign=middle;resizable=0;points=[];autosize=1;strokeColor=none;fillColor=none;fontSize=16;" parent="1" vertex="1">
          <mxGeometry x="591" y="1024" width="27" height="31" as="geometry" />
        </mxCell>
        <mxCell id="uOGjcTrOW1bZUztO3bxn-92" value="反转二叉树" style="text;html=1;align=center;verticalAlign=middle;resizable=0;points=[];autosize=1;strokeColor=none;fillColor=none;fontSize=16;" parent="1" vertex="1">
          <mxGeometry x="-117.5" y="896.5" width="98" height="31" as="geometry" />
        </mxCell>
        <mxCell id="uOGjcTrOW1bZUztO3bxn-93" value="最大深度" style="text;html=1;align=center;verticalAlign=middle;resizable=0;points=[];autosize=1;strokeColor=none;fillColor=none;fontSize=16;" parent="1" vertex="1">
          <mxGeometry x="-109" y="438" width="82" height="31" as="geometry" />
        </mxCell>
        <mxCell id="uOGjcTrOW1bZUztO3bxn-94" value="中序遍历" style="text;html=1;align=center;verticalAlign=middle;resizable=0;points=[];autosize=1;strokeColor=none;fillColor=none;fontSize=16;" parent="1" vertex="1">
          <mxGeometry x="-92.5" y="-17" width="82" height="31" as="geometry" />
        </mxCell>
        <mxCell id="vcvcbZEB10z4cYvJYGgK-1" value="&lt;font style=&quot;font-size: 31px;&quot;&gt;Day16&lt;/font&gt;" style="rounded=0;whiteSpace=wrap;html=1;fillColor=#d5e8d4;strokeColor=#82b366;" parent="1" vertex="1">
          <mxGeometry x="79" y="1327" width="176" height="93" as="geometry" />
        </mxCell>
        <mxCell id="i25cBMuh428wro9RB2eb-1" value="11" style="rounded=0;whiteSpace=wrap;html=1;fillColor=#d5e8d4;strokeColor=#82b366;" parent="1" vertex="1">
          <mxGeometry x="305" y="1327" width="176" height="93" as="geometry" />
        </mxCell>
        <mxCell id="4NU1QwO5dj-do_I7EqBa-4" style="rounded=0;orthogonalLoop=1;jettySize=auto;html=1;exitX=1;exitY=1;exitDx=0;exitDy=0;entryX=0;entryY=0;entryDx=0;entryDy=0;" edge="1" parent="1" source="4NU1QwO5dj-do_I7EqBa-2" target="4NU1QwO5dj-do_I7EqBa-3">
          <mxGeometry relative="1" as="geometry" />
        </mxCell>
        <mxCell id="4NU1QwO5dj-do_I7EqBa-5" value="学生状态" style="edgeLabel;html=1;align=center;verticalAlign=middle;resizable=0;points=[];" vertex="1" connectable="0" parent="4NU1QwO5dj-do_I7EqBa-4">
          <mxGeometry x="-0.2675" y="1" relative="1" as="geometry">
            <mxPoint as="offset" />
          </mxGeometry>
        </mxCell>
        <mxCell id="4NU1QwO5dj-do_I7EqBa-2" value="学生" style="rounded=0;whiteSpace=wrap;html=1;" vertex="1" parent="1">
          <mxGeometry x="-27" y="1837" width="88" height="48" as="geometry" />
        </mxCell>
        <mxCell id="4NU1QwO5dj-do_I7EqBa-8" style="edgeStyle=orthogonalEdgeStyle;rounded=0;orthogonalLoop=1;jettySize=auto;html=1;exitX=0;exitY=0.5;exitDx=0;exitDy=0;entryX=0.5;entryY=0;entryDx=0;entryDy=0;" edge="1" parent="1" source="4NU1QwO5dj-do_I7EqBa-3" target="4NU1QwO5dj-do_I7EqBa-7">
          <mxGeometry relative="1" as="geometry" />
        </mxCell>
        <mxCell id="4NU1QwO5dj-do_I7EqBa-9" value="子女在校情况&lt;div&gt;/警告信息/注册结果&lt;/div&gt;" style="edgeLabel;html=1;align=center;verticalAlign=middle;resizable=0;points=[];" vertex="1" connectable="0" parent="4NU1QwO5dj-do_I7EqBa-8">
          <mxGeometry x="0.1038" relative="1" as="geometry">
            <mxPoint as="offset" />
          </mxGeometry>
        </mxCell>
        <mxCell id="4NU1QwO5dj-do_I7EqBa-13" style="edgeStyle=orthogonalEdgeStyle;rounded=0;orthogonalLoop=1;jettySize=auto;html=1;exitX=0.75;exitY=1;exitDx=0;exitDy=0;" edge="1" parent="1" source="4NU1QwO5dj-do_I7EqBa-3">
          <mxGeometry relative="1" as="geometry">
            <mxPoint x="317" y="2119.6666870117188" as="targetPoint" />
          </mxGeometry>
        </mxCell>
        <mxCell id="4NU1QwO5dj-do_I7EqBa-14" value="健康状态警告" style="edgeLabel;html=1;align=center;verticalAlign=middle;resizable=0;points=[];" vertex="1" connectable="0" parent="4NU1QwO5dj-do_I7EqBa-13">
          <mxGeometry x="-0.1733" y="1" relative="1" as="geometry">
            <mxPoint as="offset" />
          </mxGeometry>
        </mxCell>
        <mxCell id="4NU1QwO5dj-do_I7EqBa-16" style="edgeStyle=orthogonalEdgeStyle;rounded=0;orthogonalLoop=1;jettySize=auto;html=1;exitX=0.5;exitY=0;exitDx=0;exitDy=0;entryX=0;entryY=0.25;entryDx=0;entryDy=0;" edge="1" parent="1" source="4NU1QwO5dj-do_I7EqBa-3" target="4NU1QwO5dj-do_I7EqBa-15">
          <mxGeometry relative="1" as="geometry" />
        </mxCell>
        <mxCell id="4NU1QwO5dj-do_I7EqBa-17" value="家长注册申请" style="edgeLabel;html=1;align=center;verticalAlign=middle;resizable=0;points=[];" vertex="1" connectable="0" parent="4NU1QwO5dj-do_I7EqBa-16">
          <mxGeometry x="-0.0939" relative="1" as="geometry">
            <mxPoint x="1" as="offset" />
          </mxGeometry>
        </mxCell>
        <mxCell id="4NU1QwO5dj-do_I7EqBa-24" style="rounded=0;orthogonalLoop=1;jettySize=auto;html=1;exitX=1;exitY=1;exitDx=0;exitDy=0;entryX=0;entryY=0;entryDx=0;entryDy=0;" edge="1" parent="1" source="4NU1QwO5dj-do_I7EqBa-3" target="4NU1QwO5dj-do_I7EqBa-23">
          <mxGeometry relative="1" as="geometry" />
        </mxCell>
        <mxCell id="4NU1QwO5dj-do_I7EqBa-25" value="学生在校情况/&lt;div&gt;警告信息&lt;/div&gt;" style="edgeLabel;html=1;align=center;verticalAlign=middle;resizable=0;points=[];" vertex="1" connectable="0" parent="4NU1QwO5dj-do_I7EqBa-24">
          <mxGeometry x="-0.1322" y="1" relative="1" as="geometry">
            <mxPoint x="-1" as="offset" />
          </mxGeometry>
        </mxCell>
        <mxCell id="4NU1QwO5dj-do_I7EqBa-3" value="学生追踪系统" style="rounded=1;whiteSpace=wrap;html=1;" vertex="1" parent="1">
          <mxGeometry x="216" y="1944" width="135" height="67" as="geometry" />
        </mxCell>
        <mxCell id="4NU1QwO5dj-do_I7EqBa-10" style="edgeStyle=orthogonalEdgeStyle;rounded=0;orthogonalLoop=1;jettySize=auto;html=1;exitX=1;exitY=0.5;exitDx=0;exitDy=0;" edge="1" parent="1" source="4NU1QwO5dj-do_I7EqBa-7">
          <mxGeometry relative="1" as="geometry">
            <mxPoint x="238.3333740234375" y="2012.3333740234375" as="targetPoint" />
          </mxGeometry>
        </mxCell>
        <mxCell id="4NU1QwO5dj-do_I7EqBa-11" value="注册信息" style="edgeLabel;html=1;align=center;verticalAlign=middle;resizable=0;points=[];" vertex="1" connectable="0" parent="4NU1QwO5dj-do_I7EqBa-10">
          <mxGeometry x="-0.3865" y="-1" relative="1" as="geometry">
            <mxPoint as="offset" />
          </mxGeometry>
        </mxCell>
        <mxCell id="4NU1QwO5dj-do_I7EqBa-7" value="医护机构" style="rounded=0;whiteSpace=wrap;html=1;" vertex="1" parent="1">
          <mxGeometry x="-75" y="2082" width="88" height="48" as="geometry" />
        </mxCell>
        <mxCell id="4NU1QwO5dj-do_I7EqBa-12" value="E5" style="rounded=0;whiteSpace=wrap;html=1;" vertex="1" parent="1">
          <mxGeometry x="263" y="2125" width="88" height="48" as="geometry" />
        </mxCell>
        <mxCell id="4NU1QwO5dj-do_I7EqBa-18" style="rounded=0;orthogonalLoop=1;jettySize=auto;html=1;exitX=0;exitY=1;exitDx=0;exitDy=0;entryX=1;entryY=0;entryDx=0;entryDy=0;" edge="1" parent="1" source="4NU1QwO5dj-do_I7EqBa-15" target="4NU1QwO5dj-do_I7EqBa-3">
          <mxGeometry relative="1" as="geometry" />
        </mxCell>
        <mxCell id="4NU1QwO5dj-do_I7EqBa-19" value="注册审核状态" style="edgeLabel;html=1;align=center;verticalAlign=middle;resizable=0;points=[];" vertex="1" connectable="0" parent="4NU1QwO5dj-do_I7EqBa-18">
          <mxGeometry x="0.0051" y="-2" relative="1" as="geometry">
            <mxPoint as="offset" />
          </mxGeometry>
        </mxCell>
        <mxCell id="4NU1QwO5dj-do_I7EqBa-21" style="edgeStyle=orthogonalEdgeStyle;rounded=0;orthogonalLoop=1;jettySize=auto;html=1;exitX=0.5;exitY=1;exitDx=0;exitDy=0;entryX=1;entryY=0.5;entryDx=0;entryDy=0;" edge="1" parent="1" source="4NU1QwO5dj-do_I7EqBa-15" target="4NU1QwO5dj-do_I7EqBa-3">
          <mxGeometry relative="1" as="geometry" />
        </mxCell>
        <mxCell id="4NU1QwO5dj-do_I7EqBa-22" value="课表/学生信息/校园场所" style="edgeLabel;html=1;align=center;verticalAlign=middle;resizable=0;points=[];" vertex="1" connectable="0" parent="4NU1QwO5dj-do_I7EqBa-21">
          <mxGeometry x="0.4143" y="3" relative="1" as="geometry">
            <mxPoint as="offset" />
          </mxGeometry>
        </mxCell>
        <mxCell id="4NU1QwO5dj-do_I7EqBa-15" value="家长" style="rounded=0;whiteSpace=wrap;html=1;" vertex="1" parent="1">
          <mxGeometry x="569" y="1850" width="88" height="48" as="geometry" />
        </mxCell>
        <mxCell id="4NU1QwO5dj-do_I7EqBa-23" value="班主任" style="rounded=0;whiteSpace=wrap;html=1;" vertex="1" parent="1">
          <mxGeometry x="574" y="2125" width="88" height="48" as="geometry" />
        </mxCell>
        <mxCell id="4NU1QwO5dj-do_I7EqBa-50" style="edgeStyle=orthogonalEdgeStyle;rounded=0;orthogonalLoop=1;jettySize=auto;html=1;exitX=1;exitY=0.5;exitDx=0;exitDy=0;entryX=0.5;entryY=0;entryDx=0;entryDy=0;" edge="1" parent="1" source="4NU1QwO5dj-do_I7EqBa-27" target="4NU1QwO5dj-do_I7EqBa-39">
          <mxGeometry relative="1" as="geometry" />
        </mxCell>
        <mxCell id="4NU1QwO5dj-do_I7EqBa-51" value="学生状态" style="edgeLabel;html=1;align=center;verticalAlign=middle;resizable=0;points=[];" vertex="1" connectable="0" parent="4NU1QwO5dj-do_I7EqBa-50">
          <mxGeometry x="-0.3843" y="-3" relative="1" as="geometry">
            <mxPoint as="offset" />
          </mxGeometry>
        </mxCell>
        <mxCell id="4NU1QwO5dj-do_I7EqBa-27" value="E1" style="rounded=0;whiteSpace=wrap;html=1;" vertex="1" parent="1">
          <mxGeometry x="-68" y="2320" width="88" height="48" as="geometry" />
        </mxCell>
        <mxCell id="4NU1QwO5dj-do_I7EqBa-45" value="" style="group" vertex="1" connectable="0" parent="1">
          <mxGeometry x="58" y="2580" width="120" height="77" as="geometry" />
        </mxCell>
        <mxCell id="4NU1QwO5dj-do_I7EqBa-41" value="到课检查" style="rounded=1;whiteSpace=wrap;html=1;" vertex="1" parent="4NU1QwO5dj-do_I7EqBa-45">
          <mxGeometry width="120" height="77" as="geometry" />
        </mxCell>
        <mxCell id="4NU1QwO5dj-do_I7EqBa-42" value="" style="endArrow=none;html=1;rounded=0;" edge="1" parent="4NU1QwO5dj-do_I7EqBa-45" target="4NU1QwO5dj-do_I7EqBa-41">
          <mxGeometry width="50" height="50" relative="1" as="geometry">
            <mxPoint x="1" y="45" as="sourcePoint" />
            <mxPoint x="51" y="-5" as="targetPoint" />
          </mxGeometry>
        </mxCell>
        <mxCell id="4NU1QwO5dj-do_I7EqBa-43" value="" style="endArrow=none;html=1;rounded=0;entryX=1;entryY=0.25;entryDx=0;entryDy=0;exitX=0;exitY=0.25;exitDx=0;exitDy=0;" edge="1" parent="4NU1QwO5dj-do_I7EqBa-45" source="4NU1QwO5dj-do_I7EqBa-41" target="4NU1QwO5dj-do_I7EqBa-41">
          <mxGeometry width="50" height="50" relative="1" as="geometry">
            <mxPoint x="3" y="30" as="sourcePoint" />
            <mxPoint x="96" y="30" as="targetPoint" />
          </mxGeometry>
        </mxCell>
        <mxCell id="4NU1QwO5dj-do_I7EqBa-44" value="P3" style="text;html=1;align=center;verticalAlign=middle;whiteSpace=wrap;rounded=0;" vertex="1" parent="4NU1QwO5dj-do_I7EqBa-45">
          <mxGeometry x="32" width="60" height="30" as="geometry" />
        </mxCell>
        <mxCell id="4NU1QwO5dj-do_I7EqBa-49" value="" style="group" vertex="1" connectable="0" parent="1">
          <mxGeometry x="61" y="2398" width="120" height="77" as="geometry" />
        </mxCell>
        <mxCell id="4NU1QwO5dj-do_I7EqBa-28" value="采集学生状态" style="rounded=1;whiteSpace=wrap;html=1;" vertex="1" parent="4NU1QwO5dj-do_I7EqBa-49">
          <mxGeometry width="120" height="77" as="geometry" />
        </mxCell>
        <mxCell id="4NU1QwO5dj-do_I7EqBa-30" value="" style="endArrow=none;html=1;rounded=0;" edge="1" parent="4NU1QwO5dj-do_I7EqBa-49" target="4NU1QwO5dj-do_I7EqBa-28">
          <mxGeometry width="50" height="50" relative="1" as="geometry">
            <mxPoint x="1" y="45" as="sourcePoint" />
            <mxPoint x="51" y="-5" as="targetPoint" />
          </mxGeometry>
        </mxCell>
        <mxCell id="4NU1QwO5dj-do_I7EqBa-31" value="" style="endArrow=none;html=1;rounded=0;entryX=1;entryY=0.25;entryDx=0;entryDy=0;exitX=0;exitY=0.25;exitDx=0;exitDy=0;" edge="1" parent="4NU1QwO5dj-do_I7EqBa-49" source="4NU1QwO5dj-do_I7EqBa-28" target="4NU1QwO5dj-do_I7EqBa-28">
          <mxGeometry width="50" height="50" relative="1" as="geometry">
            <mxPoint x="3" y="30" as="sourcePoint" />
            <mxPoint x="96" y="30" as="targetPoint" />
          </mxGeometry>
        </mxCell>
        <mxCell id="4NU1QwO5dj-do_I7EqBa-39" value="P1" style="text;html=1;align=center;verticalAlign=middle;whiteSpace=wrap;rounded=0;" vertex="1" parent="4NU1QwO5dj-do_I7EqBa-49">
          <mxGeometry x="32" width="60" height="30" as="geometry" />
        </mxCell>
        <mxCell id="4NU1QwO5dj-do_I7EqBa-113" style="edgeStyle=orthogonalEdgeStyle;rounded=0;orthogonalLoop=1;jettySize=auto;html=1;exitX=0.5;exitY=0;exitDx=0;exitDy=0;entryX=0;entryY=0;entryDx=0;entryDy=0;" edge="1" parent="1" source="4NU1QwO5dj-do_I7EqBa-52" target="4NU1QwO5dj-do_I7EqBa-72">
          <mxGeometry relative="1" as="geometry" />
        </mxCell>
        <mxCell id="4NU1QwO5dj-do_I7EqBa-114" value="学生状态" style="edgeLabel;html=1;align=center;verticalAlign=middle;resizable=0;points=[];" vertex="1" connectable="0" parent="4NU1QwO5dj-do_I7EqBa-113">
          <mxGeometry x="-0.5072" y="3" relative="1" as="geometry">
            <mxPoint y="1" as="offset" />
          </mxGeometry>
        </mxCell>
        <mxCell id="4NU1QwO5dj-do_I7EqBa-52" value="D1" style="shape=partialRectangle;whiteSpace=wrap;html=1;bottom=1;right=1;left=1;top=0;fillColor=none;routingCenterX=-0.5;direction=south;" vertex="1" parent="1">
          <mxGeometry x="239" y="2491" width="119" height="39" as="geometry" />
        </mxCell>
        <mxCell id="4NU1QwO5dj-do_I7EqBa-53" style="edgeStyle=orthogonalEdgeStyle;rounded=0;orthogonalLoop=1;jettySize=auto;html=1;exitX=1;exitY=0.5;exitDx=0;exitDy=0;entryX=0;entryY=0.5;entryDx=0;entryDy=0;" edge="1" parent="1" source="4NU1QwO5dj-do_I7EqBa-28" target="4NU1QwO5dj-do_I7EqBa-52">
          <mxGeometry relative="1" as="geometry" />
        </mxCell>
        <mxCell id="4NU1QwO5dj-do_I7EqBa-54" value="学生状态" style="edgeLabel;html=1;align=center;verticalAlign=middle;resizable=0;points=[];" vertex="1" connectable="0" parent="4NU1QwO5dj-do_I7EqBa-53">
          <mxGeometry x="-0.2752" y="-1" relative="1" as="geometry">
            <mxPoint as="offset" />
          </mxGeometry>
        </mxCell>
        <mxCell id="4NU1QwO5dj-do_I7EqBa-55" value="E4" style="rounded=0;whiteSpace=wrap;html=1;" vertex="1" parent="1">
          <mxGeometry x="-124.5" y="2509" width="88" height="48" as="geometry" />
        </mxCell>
        <mxCell id="4NU1QwO5dj-do_I7EqBa-56" style="edgeStyle=orthogonalEdgeStyle;rounded=0;orthogonalLoop=1;jettySize=auto;html=1;exitX=0.25;exitY=0;exitDx=0;exitDy=0;entryX=1;entryY=0.5;entryDx=0;entryDy=0;" edge="1" parent="1" source="4NU1QwO5dj-do_I7EqBa-41" target="4NU1QwO5dj-do_I7EqBa-55">
          <mxGeometry relative="1" as="geometry" />
        </mxCell>
        <mxCell id="4NU1QwO5dj-do_I7EqBa-57" value="旷课警告" style="edgeLabel;html=1;align=center;verticalAlign=middle;resizable=0;points=[];" vertex="1" connectable="0" parent="4NU1QwO5dj-do_I7EqBa-56">
          <mxGeometry x="0.3022" relative="1" as="geometry">
            <mxPoint as="offset" />
          </mxGeometry>
        </mxCell>
        <mxCell id="4NU1QwO5dj-do_I7EqBa-58" style="edgeStyle=orthogonalEdgeStyle;rounded=0;orthogonalLoop=1;jettySize=auto;html=1;exitX=0.5;exitY=1;exitDx=0;exitDy=0;entryX=0.617;entryY=-0.056;entryDx=0;entryDy=0;entryPerimeter=0;" edge="1" parent="1" source="4NU1QwO5dj-do_I7EqBa-52" target="4NU1QwO5dj-do_I7EqBa-44">
          <mxGeometry relative="1" as="geometry" />
        </mxCell>
        <mxCell id="4NU1QwO5dj-do_I7EqBa-59" value="学生状态" style="edgeLabel;html=1;align=center;verticalAlign=middle;resizable=0;points=[];" vertex="1" connectable="0" parent="4NU1QwO5dj-do_I7EqBa-58">
          <mxGeometry x="-0.0361" y="1" relative="1" as="geometry">
            <mxPoint as="offset" />
          </mxGeometry>
        </mxCell>
        <mxCell id="4NU1QwO5dj-do_I7EqBa-60" value="E3" style="rounded=0;whiteSpace=wrap;html=1;" vertex="1" parent="1">
          <mxGeometry x="-147" y="2594.5" width="88" height="48" as="geometry" />
        </mxCell>
        <mxCell id="4NU1QwO5dj-do_I7EqBa-63" style="edgeStyle=orthogonalEdgeStyle;rounded=0;orthogonalLoop=1;jettySize=auto;html=1;exitX=0;exitY=0.5;exitDx=0;exitDy=0;entryX=1;entryY=0.5;entryDx=0;entryDy=0;" edge="1" parent="1" source="4NU1QwO5dj-do_I7EqBa-41" target="4NU1QwO5dj-do_I7EqBa-60">
          <mxGeometry relative="1" as="geometry" />
        </mxCell>
        <mxCell id="4NU1QwO5dj-do_I7EqBa-64" value="旷课警告" style="edgeLabel;html=1;align=center;verticalAlign=middle;resizable=0;points=[];" vertex="1" connectable="0" parent="4NU1QwO5dj-do_I7EqBa-63">
          <mxGeometry x="0.0883" y="3" relative="1" as="geometry">
            <mxPoint as="offset" />
          </mxGeometry>
        </mxCell>
        <mxCell id="4NU1QwO5dj-do_I7EqBa-73" style="edgeStyle=orthogonalEdgeStyle;rounded=0;orthogonalLoop=1;jettySize=auto;html=1;exitX=0;exitY=0.25;exitDx=0;exitDy=0;entryX=0;entryY=0.25;entryDx=0;entryDy=0;" edge="1" parent="1" source="4NU1QwO5dj-do_I7EqBa-65" target="4NU1QwO5dj-do_I7EqBa-69">
          <mxGeometry relative="1" as="geometry" />
        </mxCell>
        <mxCell id="4NU1QwO5dj-do_I7EqBa-74" value="学生信息" style="edgeLabel;html=1;align=center;verticalAlign=middle;resizable=0;points=[];" vertex="1" connectable="0" parent="4NU1QwO5dj-do_I7EqBa-73">
          <mxGeometry x="0.3128" y="-3" relative="1" as="geometry">
            <mxPoint as="offset" />
          </mxGeometry>
        </mxCell>
        <mxCell id="4NU1QwO5dj-do_I7EqBa-65" value="D2" style="shape=partialRectangle;whiteSpace=wrap;html=1;bottom=1;right=1;left=1;top=0;fillColor=none;routingCenterX=-0.5;direction=south;" vertex="1" parent="1">
          <mxGeometry x="214" y="2719" width="119" height="39" as="geometry" />
        </mxCell>
        <mxCell id="4NU1QwO5dj-do_I7EqBa-66" style="edgeStyle=orthogonalEdgeStyle;rounded=0;orthogonalLoop=1;jettySize=auto;html=1;exitX=0;exitY=0.75;exitDx=0;exitDy=0;entryX=0.997;entryY=0.385;entryDx=0;entryDy=0;entryPerimeter=0;" edge="1" parent="1" source="4NU1QwO5dj-do_I7EqBa-65" target="4NU1QwO5dj-do_I7EqBa-41">
          <mxGeometry relative="1" as="geometry" />
        </mxCell>
        <mxCell id="4NU1QwO5dj-do_I7EqBa-67" value="学生信息" style="edgeLabel;html=1;align=center;verticalAlign=middle;resizable=0;points=[];" vertex="1" connectable="0" parent="4NU1QwO5dj-do_I7EqBa-66">
          <mxGeometry x="-0.214" y="1" relative="1" as="geometry">
            <mxPoint as="offset" />
          </mxGeometry>
        </mxCell>
        <mxCell id="4NU1QwO5dj-do_I7EqBa-68" value="" style="group" vertex="1" connectable="0" parent="1">
          <mxGeometry x="419" y="2569" width="120" height="77" as="geometry" />
        </mxCell>
        <mxCell id="4NU1QwO5dj-do_I7EqBa-69" value="健康状态告警" style="rounded=1;whiteSpace=wrap;html=1;" vertex="1" parent="4NU1QwO5dj-do_I7EqBa-68">
          <mxGeometry width="120" height="77" as="geometry" />
        </mxCell>
        <mxCell id="4NU1QwO5dj-do_I7EqBa-70" value="" style="endArrow=none;html=1;rounded=0;" edge="1" parent="4NU1QwO5dj-do_I7EqBa-68" target="4NU1QwO5dj-do_I7EqBa-69">
          <mxGeometry width="50" height="50" relative="1" as="geometry">
            <mxPoint x="1" y="45" as="sourcePoint" />
            <mxPoint x="51" y="-5" as="targetPoint" />
          </mxGeometry>
        </mxCell>
        <mxCell id="4NU1QwO5dj-do_I7EqBa-71" value="" style="endArrow=none;html=1;rounded=0;entryX=1;entryY=0.25;entryDx=0;entryDy=0;exitX=0;exitY=0.25;exitDx=0;exitDy=0;" edge="1" parent="4NU1QwO5dj-do_I7EqBa-68" source="4NU1QwO5dj-do_I7EqBa-69" target="4NU1QwO5dj-do_I7EqBa-69">
          <mxGeometry width="50" height="50" relative="1" as="geometry">
            <mxPoint x="3" y="30" as="sourcePoint" />
            <mxPoint x="96" y="30" as="targetPoint" />
          </mxGeometry>
        </mxCell>
        <mxCell id="4NU1QwO5dj-do_I7EqBa-72" value="P2" style="text;html=1;align=center;verticalAlign=middle;whiteSpace=wrap;rounded=0;" vertex="1" parent="4NU1QwO5dj-do_I7EqBa-68">
          <mxGeometry x="32" width="60" height="30" as="geometry" />
        </mxCell>
        <mxCell id="4NU1QwO5dj-do_I7EqBa-75" value="D5家长" style="shape=partialRectangle;whiteSpace=wrap;html=1;bottom=1;right=1;left=1;top=0;fillColor=none;routingCenterX=-0.5;direction=south;" vertex="1" parent="1">
          <mxGeometry x="265.5" y="2792" width="119" height="39" as="geometry" />
        </mxCell>
        <mxCell id="4NU1QwO5dj-do_I7EqBa-76" style="edgeStyle=orthogonalEdgeStyle;rounded=0;orthogonalLoop=1;jettySize=auto;html=1;exitX=0;exitY=0.25;exitDx=0;exitDy=0;entryX=-0.006;entryY=0.675;entryDx=0;entryDy=0;entryPerimeter=0;" edge="1" parent="1" source="4NU1QwO5dj-do_I7EqBa-75" target="4NU1QwO5dj-do_I7EqBa-69">
          <mxGeometry relative="1" as="geometry" />
        </mxCell>
        <mxCell id="4NU1QwO5dj-do_I7EqBa-77" value="D4" style="shape=partialRectangle;whiteSpace=wrap;html=1;bottom=1;right=1;left=1;top=0;fillColor=none;routingCenterX=-0.5;direction=south;" vertex="1" parent="1">
          <mxGeometry x="-183" y="2700" width="119" height="39" as="geometry" />
        </mxCell>
        <mxCell id="4NU1QwO5dj-do_I7EqBa-78" value="D3" style="shape=partialRectangle;whiteSpace=wrap;html=1;bottom=1;right=1;left=1;top=0;fillColor=none;routingCenterX=-0.5;direction=south;" vertex="1" parent="1">
          <mxGeometry x="15.5" y="2730" width="119" height="39" as="geometry" />
        </mxCell>
        <mxCell id="4NU1QwO5dj-do_I7EqBa-79" value="" style="group" vertex="1" connectable="0" parent="1">
          <mxGeometry x="-9" y="2868" width="120" height="77" as="geometry" />
        </mxCell>
        <mxCell id="4NU1QwO5dj-do_I7EqBa-80" value="基础信息管理" style="rounded=1;whiteSpace=wrap;html=1;" vertex="1" parent="4NU1QwO5dj-do_I7EqBa-79">
          <mxGeometry width="120" height="77" as="geometry" />
        </mxCell>
        <mxCell id="4NU1QwO5dj-do_I7EqBa-81" value="" style="endArrow=none;html=1;rounded=0;" edge="1" parent="4NU1QwO5dj-do_I7EqBa-79" target="4NU1QwO5dj-do_I7EqBa-80">
          <mxGeometry width="50" height="50" relative="1" as="geometry">
            <mxPoint x="1" y="45" as="sourcePoint" />
            <mxPoint x="51" y="-5" as="targetPoint" />
          </mxGeometry>
        </mxCell>
        <mxCell id="4NU1QwO5dj-do_I7EqBa-82" value="" style="endArrow=none;html=1;rounded=0;entryX=1;entryY=0.25;entryDx=0;entryDy=0;exitX=0;exitY=0.25;exitDx=0;exitDy=0;" edge="1" parent="4NU1QwO5dj-do_I7EqBa-79" source="4NU1QwO5dj-do_I7EqBa-80" target="4NU1QwO5dj-do_I7EqBa-80">
          <mxGeometry width="50" height="50" relative="1" as="geometry">
            <mxPoint x="3" y="30" as="sourcePoint" />
            <mxPoint x="96" y="30" as="targetPoint" />
          </mxGeometry>
        </mxCell>
        <mxCell id="4NU1QwO5dj-do_I7EqBa-83" value="P6" style="text;html=1;align=center;verticalAlign=middle;whiteSpace=wrap;rounded=0;" vertex="1" parent="4NU1QwO5dj-do_I7EqBa-79">
          <mxGeometry x="32" width="60" height="30" as="geometry" />
        </mxCell>
        <mxCell id="4NU1QwO5dj-do_I7EqBa-84" style="edgeStyle=orthogonalEdgeStyle;rounded=0;orthogonalLoop=1;jettySize=auto;html=1;exitX=0.75;exitY=0;exitDx=0;exitDy=0;entryX=1.051;entryY=0.556;entryDx=0;entryDy=0;entryPerimeter=0;" edge="1" parent="1" source="4NU1QwO5dj-do_I7EqBa-83" target="4NU1QwO5dj-do_I7EqBa-78">
          <mxGeometry relative="1" as="geometry" />
        </mxCell>
        <mxCell id="4NU1QwO5dj-do_I7EqBa-85" style="edgeStyle=orthogonalEdgeStyle;rounded=0;orthogonalLoop=1;jettySize=auto;html=1;exitX=0.25;exitY=0;exitDx=0;exitDy=0;entryX=1;entryY=0;entryDx=0;entryDy=0;curved=1;" edge="1" parent="1" source="4NU1QwO5dj-do_I7EqBa-80" target="4NU1QwO5dj-do_I7EqBa-77">
          <mxGeometry relative="1" as="geometry" />
        </mxCell>
        <mxCell id="4NU1QwO5dj-do_I7EqBa-86" value="课表信息" style="edgeLabel;html=1;align=center;verticalAlign=middle;resizable=0;points=[];" vertex="1" connectable="0" parent="4NU1QwO5dj-do_I7EqBa-85">
          <mxGeometry x="0.0576" relative="1" as="geometry">
            <mxPoint as="offset" />
          </mxGeometry>
        </mxCell>
        <mxCell id="4NU1QwO5dj-do_I7EqBa-87" style="rounded=0;orthogonalLoop=1;jettySize=auto;html=1;exitX=1;exitY=0;exitDx=0;exitDy=0;entryX=1;entryY=1;entryDx=0;entryDy=0;" edge="1" parent="1" source="4NU1QwO5dj-do_I7EqBa-80" target="4NU1QwO5dj-do_I7EqBa-65">
          <mxGeometry relative="1" as="geometry" />
        </mxCell>
        <mxCell id="4NU1QwO5dj-do_I7EqBa-88" value="学生基础信息" style="edgeLabel;html=1;align=center;verticalAlign=middle;resizable=0;points=[];" vertex="1" connectable="0" parent="4NU1QwO5dj-do_I7EqBa-87">
          <mxGeometry x="0.0826" y="-1" relative="1" as="geometry">
            <mxPoint as="offset" />
          </mxGeometry>
        </mxCell>
        <mxCell id="4NU1QwO5dj-do_I7EqBa-89" style="rounded=0;orthogonalLoop=1;jettySize=auto;html=1;exitX=1;exitY=0.5;exitDx=0;exitDy=0;entryX=1;entryY=1;entryDx=0;entryDy=0;" edge="1" parent="1" source="4NU1QwO5dj-do_I7EqBa-80" target="4NU1QwO5dj-do_I7EqBa-75">
          <mxGeometry relative="1" as="geometry" />
        </mxCell>
        <mxCell id="4NU1QwO5dj-do_I7EqBa-90" value="更新家长状态" style="edgeLabel;html=1;align=center;verticalAlign=middle;resizable=0;points=[];" vertex="1" connectable="0" parent="4NU1QwO5dj-do_I7EqBa-89">
          <mxGeometry x="-0.146" y="-1" relative="1" as="geometry">
            <mxPoint as="offset" />
          </mxGeometry>
        </mxCell>
        <mxCell id="4NU1QwO5dj-do_I7EqBa-92" style="edgeStyle=orthogonalEdgeStyle;rounded=0;orthogonalLoop=1;jettySize=auto;html=1;exitX=0.25;exitY=0;exitDx=0;exitDy=0;entryX=0;entryY=0;entryDx=0;entryDy=0;" edge="1" parent="1" source="4NU1QwO5dj-do_I7EqBa-91" target="4NU1QwO5dj-do_I7EqBa-80">
          <mxGeometry relative="1" as="geometry" />
        </mxCell>
        <mxCell id="4NU1QwO5dj-do_I7EqBa-93" value="课表/&lt;div&gt;学生信息&lt;/div&gt;" style="edgeLabel;html=1;align=center;verticalAlign=middle;resizable=0;points=[];" vertex="1" connectable="0" parent="4NU1QwO5dj-do_I7EqBa-92">
          <mxGeometry x="-0.1117" y="1" relative="1" as="geometry">
            <mxPoint as="offset" />
          </mxGeometry>
        </mxCell>
        <mxCell id="4NU1QwO5dj-do_I7EqBa-94" style="edgeStyle=orthogonalEdgeStyle;rounded=0;orthogonalLoop=1;jettySize=auto;html=1;exitX=0.5;exitY=0;exitDx=0;exitDy=0;entryX=0;entryY=0.25;entryDx=0;entryDy=0;" edge="1" parent="1" source="4NU1QwO5dj-do_I7EqBa-91" target="4NU1QwO5dj-do_I7EqBa-80">
          <mxGeometry relative="1" as="geometry" />
        </mxCell>
        <mxCell id="4NU1QwO5dj-do_I7EqBa-95" value="校园场所/&lt;div&gt;注册审核状态&lt;/div&gt;" style="edgeLabel;html=1;align=center;verticalAlign=middle;resizable=0;points=[];" vertex="1" connectable="0" parent="4NU1QwO5dj-do_I7EqBa-94">
          <mxGeometry x="-0.35" relative="1" as="geometry">
            <mxPoint as="offset" />
          </mxGeometry>
        </mxCell>
        <mxCell id="4NU1QwO5dj-do_I7EqBa-91" value="E2" style="rounded=0;whiteSpace=wrap;html=1;" vertex="1" parent="1">
          <mxGeometry x="-173" y="3035" width="88" height="48" as="geometry" />
        </mxCell>
        <mxCell id="4NU1QwO5dj-do_I7EqBa-96" style="edgeStyle=orthogonalEdgeStyle;rounded=0;orthogonalLoop=1;jettySize=auto;html=1;exitX=0.5;exitY=1;exitDx=0;exitDy=0;entryX=1;entryY=0.25;entryDx=0;entryDy=0;" edge="1" parent="1" source="4NU1QwO5dj-do_I7EqBa-80" target="4NU1QwO5dj-do_I7EqBa-91">
          <mxGeometry relative="1" as="geometry" />
        </mxCell>
        <mxCell id="4NU1QwO5dj-do_I7EqBa-97" value="家长注册申请" style="edgeLabel;html=1;align=center;verticalAlign=middle;resizable=0;points=[];" vertex="1" connectable="0" parent="4NU1QwO5dj-do_I7EqBa-96">
          <mxGeometry x="-0.563" y="-1" relative="1" as="geometry">
            <mxPoint as="offset" />
          </mxGeometry>
        </mxCell>
        <mxCell id="4NU1QwO5dj-do_I7EqBa-98" value="E4" style="rounded=0;whiteSpace=wrap;html=1;" vertex="1" parent="1">
          <mxGeometry x="190" y="3037" width="88" height="48" as="geometry" />
        </mxCell>
        <mxCell id="4NU1QwO5dj-do_I7EqBa-99" value="" style="group" vertex="1" connectable="0" parent="1">
          <mxGeometry x="263" y="2907" width="120" height="77" as="geometry" />
        </mxCell>
        <mxCell id="4NU1QwO5dj-do_I7EqBa-100" value="家长注册" style="rounded=1;whiteSpace=wrap;html=1;" vertex="1" parent="4NU1QwO5dj-do_I7EqBa-99">
          <mxGeometry width="120" height="77" as="geometry" />
        </mxCell>
        <mxCell id="4NU1QwO5dj-do_I7EqBa-101" value="" style="endArrow=none;html=1;rounded=0;" edge="1" parent="4NU1QwO5dj-do_I7EqBa-99" target="4NU1QwO5dj-do_I7EqBa-100">
          <mxGeometry width="50" height="50" relative="1" as="geometry">
            <mxPoint x="1" y="45" as="sourcePoint" />
            <mxPoint x="51" y="-5" as="targetPoint" />
          </mxGeometry>
        </mxCell>
        <mxCell id="4NU1QwO5dj-do_I7EqBa-102" value="" style="endArrow=none;html=1;rounded=0;entryX=1;entryY=0.25;entryDx=0;entryDy=0;exitX=0;exitY=0.25;exitDx=0;exitDy=0;" edge="1" parent="4NU1QwO5dj-do_I7EqBa-99" source="4NU1QwO5dj-do_I7EqBa-100" target="4NU1QwO5dj-do_I7EqBa-100">
          <mxGeometry width="50" height="50" relative="1" as="geometry">
            <mxPoint x="3" y="30" as="sourcePoint" />
            <mxPoint x="96" y="30" as="targetPoint" />
          </mxGeometry>
        </mxCell>
        <mxCell id="4NU1QwO5dj-do_I7EqBa-103" value="P5" style="text;html=1;align=center;verticalAlign=middle;whiteSpace=wrap;rounded=0;" vertex="1" parent="4NU1QwO5dj-do_I7EqBa-99">
          <mxGeometry x="32" width="60" height="30" as="geometry" />
        </mxCell>
        <mxCell id="4NU1QwO5dj-do_I7EqBa-105" style="edgeStyle=orthogonalEdgeStyle;rounded=0;orthogonalLoop=1;jettySize=auto;html=1;exitX=0.5;exitY=0;exitDx=0;exitDy=0;entryX=0.003;entryY=0.398;entryDx=0;entryDy=0;entryPerimeter=0;" edge="1" parent="1" source="4NU1QwO5dj-do_I7EqBa-98" target="4NU1QwO5dj-do_I7EqBa-100">
          <mxGeometry relative="1" as="geometry" />
        </mxCell>
        <mxCell id="4NU1QwO5dj-do_I7EqBa-106" value="注册信息" style="edgeLabel;html=1;align=center;verticalAlign=middle;resizable=0;points=[];" vertex="1" connectable="0" parent="4NU1QwO5dj-do_I7EqBa-105">
          <mxGeometry x="-0.3003" y="1" relative="1" as="geometry">
            <mxPoint as="offset" />
          </mxGeometry>
        </mxCell>
        <mxCell id="4NU1QwO5dj-do_I7EqBa-107" style="edgeStyle=orthogonalEdgeStyle;rounded=0;orthogonalLoop=1;jettySize=auto;html=1;exitX=0.75;exitY=1;exitDx=0;exitDy=0;entryX=0;entryY=0.5;entryDx=0;entryDy=0;" edge="1" parent="1" source="4NU1QwO5dj-do_I7EqBa-80" target="4NU1QwO5dj-do_I7EqBa-98">
          <mxGeometry relative="1" as="geometry" />
        </mxCell>
        <mxCell id="4NU1QwO5dj-do_I7EqBa-108" value="注册结果" style="edgeLabel;html=1;align=center;verticalAlign=middle;resizable=0;points=[];" vertex="1" connectable="0" parent="4NU1QwO5dj-do_I7EqBa-107">
          <mxGeometry x="0.3452" y="-2" relative="1" as="geometry">
            <mxPoint as="offset" />
          </mxGeometry>
        </mxCell>
        <mxCell id="4NU1QwO5dj-do_I7EqBa-109" style="edgeStyle=orthogonalEdgeStyle;rounded=0;orthogonalLoop=1;jettySize=auto;html=1;exitX=0.5;exitY=0;exitDx=0;exitDy=0;entryX=1;entryY=0.5;entryDx=0;entryDy=0;" edge="1" parent="1" source="4NU1QwO5dj-do_I7EqBa-103" target="4NU1QwO5dj-do_I7EqBa-75">
          <mxGeometry relative="1" as="geometry" />
        </mxCell>
        <mxCell id="4NU1QwO5dj-do_I7EqBa-110" value="家长信息" style="edgeLabel;html=1;align=center;verticalAlign=middle;resizable=0;points=[];" vertex="1" connectable="0" parent="4NU1QwO5dj-do_I7EqBa-109">
          <mxGeometry x="0.0526" y="1" relative="1" as="geometry">
            <mxPoint as="offset" />
          </mxGeometry>
        </mxCell>
        <mxCell id="4NU1QwO5dj-do_I7EqBa-111" value="E3" style="rounded=0;whiteSpace=wrap;html=1;" vertex="1" parent="1">
          <mxGeometry x="635" y="2410" width="88" height="48" as="geometry" />
        </mxCell>
        <mxCell id="4NU1QwO5dj-do_I7EqBa-112" value="E4" style="rounded=0;whiteSpace=wrap;html=1;" vertex="1" parent="1">
          <mxGeometry x="635" y="2493" width="88" height="48" as="geometry" />
        </mxCell>
        <mxCell id="4NU1QwO5dj-do_I7EqBa-115" style="edgeStyle=orthogonalEdgeStyle;rounded=0;orthogonalLoop=1;jettySize=auto;html=1;exitX=0.5;exitY=0;exitDx=0;exitDy=0;entryX=0;entryY=0.25;entryDx=0;entryDy=0;" edge="1" parent="1" source="4NU1QwO5dj-do_I7EqBa-72" target="4NU1QwO5dj-do_I7EqBa-111">
          <mxGeometry relative="1" as="geometry" />
        </mxCell>
        <mxCell id="4NU1QwO5dj-do_I7EqBa-116" value="健康状态警告" style="edgeLabel;html=1;align=center;verticalAlign=middle;resizable=0;points=[];" vertex="1" connectable="0" parent="4NU1QwO5dj-do_I7EqBa-115">
          <mxGeometry x="-0.1561" y="2" relative="1" as="geometry">
            <mxPoint as="offset" />
          </mxGeometry>
        </mxCell>
        <mxCell id="4NU1QwO5dj-do_I7EqBa-117" style="edgeStyle=orthogonalEdgeStyle;rounded=0;orthogonalLoop=1;jettySize=auto;html=1;exitX=1;exitY=0;exitDx=0;exitDy=0;entryX=0;entryY=0.25;entryDx=0;entryDy=0;" edge="1" parent="1" source="4NU1QwO5dj-do_I7EqBa-72" target="4NU1QwO5dj-do_I7EqBa-112">
          <mxGeometry relative="1" as="geometry" />
        </mxCell>
        <mxCell id="4NU1QwO5dj-do_I7EqBa-118" value="健康状态警告" style="edgeLabel;html=1;align=center;verticalAlign=middle;resizable=0;points=[];" vertex="1" connectable="0" parent="4NU1QwO5dj-do_I7EqBa-117">
          <mxGeometry x="-0.0603" relative="1" as="geometry">
            <mxPoint as="offset" />
          </mxGeometry>
        </mxCell>
        <mxCell id="4NU1QwO5dj-do_I7EqBa-119" value="E4" style="rounded=0;whiteSpace=wrap;html=1;" vertex="1" parent="1">
          <mxGeometry x="635" y="2569" width="88" height="48" as="geometry" />
        </mxCell>
        <mxCell id="4NU1QwO5dj-do_I7EqBa-120" style="edgeStyle=orthogonalEdgeStyle;rounded=0;orthogonalLoop=1;jettySize=auto;html=1;exitX=1;exitY=0.75;exitDx=0;exitDy=0;entryX=0;entryY=0.5;entryDx=0;entryDy=0;curved=1;" edge="1" parent="1" source="4NU1QwO5dj-do_I7EqBa-69" target="4NU1QwO5dj-do_I7EqBa-119">
          <mxGeometry relative="1" as="geometry" />
        </mxCell>
        <mxCell id="4NU1QwO5dj-do_I7EqBa-121" value="健康状态警告" style="edgeLabel;html=1;align=center;verticalAlign=middle;resizable=0;points=[];" vertex="1" connectable="0" parent="4NU1QwO5dj-do_I7EqBa-120">
          <mxGeometry x="-0.4865" y="6" relative="1" as="geometry">
            <mxPoint as="offset" />
          </mxGeometry>
        </mxCell>
        <mxCell id="4NU1QwO5dj-do_I7EqBa-122" value="D2" style="shape=partialRectangle;whiteSpace=wrap;html=1;bottom=1;right=1;left=1;top=0;fillColor=none;routingCenterX=-0.5;direction=south;" vertex="1" parent="1">
          <mxGeometry x="463" y="2795" width="119" height="39" as="geometry" />
        </mxCell>
        <mxCell id="4NU1QwO5dj-do_I7EqBa-133" style="edgeStyle=orthogonalEdgeStyle;rounded=0;orthogonalLoop=1;jettySize=auto;html=1;exitX=1;exitY=0.75;exitDx=0;exitDy=0;" edge="1" parent="1" source="4NU1QwO5dj-do_I7EqBa-123">
          <mxGeometry relative="1" as="geometry">
            <mxPoint x="649" y="2911" as="targetPoint" />
          </mxGeometry>
        </mxCell>
        <mxCell id="4NU1QwO5dj-do_I7EqBa-135" value="学生状态" style="edgeLabel;html=1;align=center;verticalAlign=middle;resizable=0;points=[];" vertex="1" connectable="0" parent="4NU1QwO5dj-do_I7EqBa-133">
          <mxGeometry x="-0.0692" y="1" relative="1" as="geometry">
            <mxPoint as="offset" />
          </mxGeometry>
        </mxCell>
        <mxCell id="4NU1QwO5dj-do_I7EqBa-123" value="D1" style="shape=partialRectangle;whiteSpace=wrap;html=1;bottom=1;right=1;left=1;top=0;fillColor=none;routingCenterX=-0.5;direction=south;" vertex="1" parent="1">
          <mxGeometry x="619.5" y="2797" width="119" height="39" as="geometry" />
        </mxCell>
        <mxCell id="4NU1QwO5dj-do_I7EqBa-124" value="" style="group" vertex="1" connectable="0" parent="1">
          <mxGeometry x="541" y="2911" width="120" height="77" as="geometry" />
        </mxCell>
        <mxCell id="4NU1QwO5dj-do_I7EqBa-125" value="汇总在校情况" style="rounded=1;whiteSpace=wrap;html=1;" vertex="1" parent="4NU1QwO5dj-do_I7EqBa-124">
          <mxGeometry width="120" height="77" as="geometry" />
        </mxCell>
        <mxCell id="4NU1QwO5dj-do_I7EqBa-126" value="" style="endArrow=none;html=1;rounded=0;" edge="1" parent="4NU1QwO5dj-do_I7EqBa-124" target="4NU1QwO5dj-do_I7EqBa-125">
          <mxGeometry width="50" height="50" relative="1" as="geometry">
            <mxPoint x="1" y="45" as="sourcePoint" />
            <mxPoint x="51" y="-5" as="targetPoint" />
          </mxGeometry>
        </mxCell>
        <mxCell id="4NU1QwO5dj-do_I7EqBa-127" value="" style="endArrow=none;html=1;rounded=0;entryX=1;entryY=0.25;entryDx=0;entryDy=0;exitX=0;exitY=0.25;exitDx=0;exitDy=0;" edge="1" parent="4NU1QwO5dj-do_I7EqBa-124" source="4NU1QwO5dj-do_I7EqBa-125" target="4NU1QwO5dj-do_I7EqBa-125">
          <mxGeometry width="50" height="50" relative="1" as="geometry">
            <mxPoint x="3" y="30" as="sourcePoint" />
            <mxPoint x="96" y="30" as="targetPoint" />
          </mxGeometry>
        </mxCell>
        <mxCell id="4NU1QwO5dj-do_I7EqBa-128" value="P4" style="text;html=1;align=center;verticalAlign=middle;whiteSpace=wrap;rounded=0;" vertex="1" parent="4NU1QwO5dj-do_I7EqBa-124">
          <mxGeometry x="32" width="60" height="30" as="geometry" />
        </mxCell>
        <mxCell id="4NU1QwO5dj-do_I7EqBa-129" style="edgeStyle=orthogonalEdgeStyle;rounded=0;orthogonalLoop=1;jettySize=auto;html=1;exitX=0.25;exitY=1;exitDx=0;exitDy=0;entryX=1;entryY=0.5;entryDx=0;entryDy=0;" edge="1" parent="1" source="4NU1QwO5dj-do_I7EqBa-125" target="4NU1QwO5dj-do_I7EqBa-98">
          <mxGeometry relative="1" as="geometry" />
        </mxCell>
        <mxCell id="4NU1QwO5dj-do_I7EqBa-130" value="子女在校情况" style="edgeLabel;html=1;align=center;verticalAlign=middle;resizable=0;points=[];" vertex="1" connectable="0" parent="4NU1QwO5dj-do_I7EqBa-129">
          <mxGeometry x="0.3206" y="-1" relative="1" as="geometry">
            <mxPoint as="offset" />
          </mxGeometry>
        </mxCell>
        <mxCell id="4NU1QwO5dj-do_I7EqBa-132" style="edgeStyle=orthogonalEdgeStyle;rounded=0;orthogonalLoop=1;jettySize=auto;html=1;exitX=1;exitY=0.25;exitDx=0;exitDy=0;entryX=0.1;entryY=0.052;entryDx=0;entryDy=0;entryPerimeter=0;" edge="1" parent="1" source="4NU1QwO5dj-do_I7EqBa-122" target="4NU1QwO5dj-do_I7EqBa-125">
          <mxGeometry relative="1" as="geometry" />
        </mxCell>
        <mxCell id="4NU1QwO5dj-do_I7EqBa-134" value="学生信息" style="edgeLabel;html=1;align=center;verticalAlign=middle;resizable=0;points=[];" vertex="1" connectable="0" parent="4NU1QwO5dj-do_I7EqBa-132">
          <mxGeometry x="-0.0282" relative="1" as="geometry">
            <mxPoint as="offset" />
          </mxGeometry>
        </mxCell>
        <mxCell id="4NU1QwO5dj-do_I7EqBa-136" value="E3" style="rounded=0;whiteSpace=wrap;html=1;" vertex="1" parent="1">
          <mxGeometry x="631" y="3054" width="88" height="48" as="geometry" />
        </mxCell>
        <mxCell id="4NU1QwO5dj-do_I7EqBa-138" style="edgeStyle=orthogonalEdgeStyle;rounded=0;orthogonalLoop=1;jettySize=auto;html=1;exitX=0.75;exitY=1;exitDx=0;exitDy=0;entryX=0;entryY=0;entryDx=0;entryDy=0;" edge="1" parent="1" source="4NU1QwO5dj-do_I7EqBa-125" target="4NU1QwO5dj-do_I7EqBa-136">
          <mxGeometry relative="1" as="geometry" />
        </mxCell>
        <mxCell id="4NU1QwO5dj-do_I7EqBa-139" value="学生在校情况" style="edgeLabel;html=1;align=center;verticalAlign=middle;resizable=0;points=[];" vertex="1" connectable="0" parent="4NU1QwO5dj-do_I7EqBa-138">
          <mxGeometry x="-0.2222" y="1" relative="1" as="geometry">
            <mxPoint as="offset" />
          </mxGeometry>
        </mxCell>
      </root>
    </mxGraphModel>
  </diagram>
</mxfile>
